<?xml version="1.0" encoding="UTF-8" standalone="no"?>
<!-- Created with Inkscape (http://www.inkscape.org/) -->

<svg
   version="1.1"
   id="svg2"
   width="666.66669"
   height="666.66669"
   viewBox="0 0 666.66669 666.66669"
   sodipodi:docname="hero-image.svg"
   inkscape:version="1.2 (dc2aedaf03, 2022-05-15)"
   xmlns:inkscape="http://www.inkscape.org/namespaces/inkscape"
   xmlns:sodipodi="http://sodipodi.sourceforge.net/DTD/sodipodi-0.dtd"
   xmlns="http://www.w3.org/2000/svg"
   xmlns:svg="http://www.w3.org/2000/svg">
  <defs
     id="defs6">
    <clipPath
       clipPathUnits="userSpaceOnUse"
       id="clipPath20">
      <path
         d="M 0,500 H 500 V 0 H 0 Z"
         id="path18" />
    </clipPath>
    <clipPath
       clipPathUnits="userSpaceOnUse"
       id="clipPath112">
      <path
         d="m 340.177,198.631 c 0.211,0 -0.018,-13.267 -0.521,-14.489 v 0 c -0.297,-0.722 -0.77,-1.378 -1.384,-1.864 v 0 c -0.746,-0.591 -1.5,-0.659 -2.353,-0.973 v 0 c 0.234,-0.522 0.811,-1.098 1.248,-1.452 v 0 c 0.602,-0.491 1.233,-0.947 1.893,-1.357 v 0 c 1.332,-0.828 2.781,-1.467 4.303,-1.853 v 0 c 3.213,-0.814 7.19,-0.506 10.305,0.596 v 0 c 0.838,0.297 1.714,0.701 2.534,1.208 v 0 c 1.159,0.714 2.207,1.632 2.88,2.734 v 0 c 0.341,0.558 0.259,0.44 -0.384,0.601 v 0 c -0.472,0.117 -0.889,0.3 -1.261,0.62 v 0 c -0.718,0.617 -1.108,1.559 -1.24,2.48 v 0 c -0.231,1.62 0.073,3.267 0.011,4.904 v 0 c -0.03,0.812 -0.123,8.846 -0.074,8.845 v 0 z"
         id="path110" />
    </clipPath>
    <clipPath
       clipPathUnits="userSpaceOnUse"
       id="clipPath124">
      <path
         d="M 0,500 H 500 V 0 H 0 Z"
         id="path122" />
    </clipPath>
    <clipPath
       clipPathUnits="userSpaceOnUse"
       id="clipPath366">
      <path
         d="m 134.212,219.242 c -4.866,-1.933 -3.384,-17.164 3.31,-34.022 v 0 c 6.694,-16.857 16.064,-28.957 20.929,-27.025 v 0 c 4.866,1.931 3.383,17.164 -3.31,34.022 v 0 c -6.222,15.668 -14.757,27.227 -19.836,27.227 v 0 c -0.386,0 -0.75,-0.066 -1.093,-0.202"
         id="path364" />
    </clipPath>
    <clipPath
       clipPathUnits="userSpaceOnUse"
       id="clipPath378">
      <path
         d="M 0,500 H 500 V 0 H 0 Z"
         id="path376" />
    </clipPath>
    <clipPath
       clipPathUnits="userSpaceOnUse"
       id="clipPath566">
      <path
         d="m 31.947,299.64 c 0,-16.172 13.112,-29.284 29.285,-29.284 v 0 c 16.172,0 29.283,13.112 29.283,29.284 v 0 c 0,16.173 -13.111,29.283 -29.283,29.283 v 0 c -16.173,0 -29.285,-13.11 -29.285,-29.283"
         id="path564" />
    </clipPath>
    <clipPath
       clipPathUnits="userSpaceOnUse"
       id="clipPath586">
      <path
         d="M 0,500 H 500 V 0 H 0 Z"
         id="path584" />
    </clipPath>
  </defs>
  <sodipodi:namedview
     id="namedview4"
     pagecolor="#ffffff"
     bordercolor="#999999"
     borderopacity="1"
     inkscape:showpageshadow="0"
     inkscape:pageopacity="0"
     inkscape:pagecheckerboard="0"
     inkscape:deskcolor="#d1d1d1"
     showgrid="false"
     inkscape:zoom="0.42638539"
     inkscape:cx="192.31428"
     inkscape:cy="243.9108"
     inkscape:window-width="1366"
     inkscape:window-height="697"
     inkscape:window-x="-8"
     inkscape:window-y="-8"
     inkscape:window-maximized="1"
     inkscape:current-layer="g10">
    <inkscape:page
       x="0"
       y="0"
       id="page8"
       width="666.66669"
       height="666.66669"
       inkscape:export-filename="Página 1.png"
       inkscape:export-xdpi="96"
       inkscape:export-ydpi="96" />
  </sodipodi:namedview>
  <g
     id="g10"
     inkscape:groupmode="layer"
     inkscape:label="Page 1"
     transform="matrix(1.3333333,0,0,-1.3333333,0,666.66667)">
    <g
       id="g14">
      <g
         id="g16"
         clip-path="url(#clipPath20)">
        <g
           id="g22"
           transform="translate(85.7811,134.7924)">
          <path
             d="m 0,0 c -18.732,18.572 -42.405,45.894 -45.992,73.218 -3.679,28.036 0.328,54.345 11.157,80.453 16.113,38.85 18.845,84.577 46.425,116.331 17.542,20.197 43.691,32.037 70.338,34.397 20.734,1.837 42.574,-2.087 59.402,-14.338 14.556,-10.599 24.407,-26.682 30.397,-43.663 10.281,-29.15 9.836,-61.952 -1.233,-90.812 -13.034,-33.984 -39.542,-61.177 -54.776,-94.233 -5.682,-12.33 -9.796,-26.003 -7.555,-39.392 1.935,-11.56 8.524,-22.842 6.006,-34.288 -1.775,-8.073 -7.961,-14.616 -15.122,-18.746 -8.39,-4.839 -22.341,-10.922 -32.098,-9.106 C 41.006,-35.347 18.3,-18.144 0,0"
             style="fill:#8800aa;fill-opacity:1;fill-rule:nonzero;stroke:none"
             id="path24" />
        </g>
        <g
           id="g26"
           transform="translate(300.9608,266.9701)">
          <path
             d="m 0,0 c -29.678,17.934 -17.963,64.975 -7.278,90.281 10.298,24.385 25.14,47.745 47.065,62.576 18.376,12.432 41.187,18.154 63.254,15.868 13.649,-1.414 27.268,-5.982 37.719,-14.874 11.666,-9.926 18.545,-24.463 22.473,-39.269 5.068,-19.101 5.649,-39.829 -1.317,-58.323 C 149.548,23.426 117.513,13.694 86.23,6.328 65.988,1.561 45.405,-1.759 24.69,-3.599 18.707,-4.13 12.574,-4.525 6.784,-2.93 4.357,-2.261 2.093,-1.265 0,0"
             style="fill:#8800aa;fill-opacity:1;fill-rule:nonzero;stroke:none"
             id="path28" />
        </g>
        <g
           id="g30"
           transform="translate(319.3865,230.3158)">
          <path
             d="m 0,0 c -4.211,-2.122 -8.456,-4.098 -12.798,-5.699 -11.64,-4.293 -24.13,-6.13 -35.487,-11.124 -23.238,-10.221 -39.911,-34.89 -38.817,-60.252 0.571,-13.226 5.562,-25.86 11.428,-37.727 9.727,-19.677 23.035,-38.936 42.89,-48.296 21.154,-9.971 45.864,-7.048 68.998,-3.627 17.65,2.611 35.499,5.452 51.864,12.56 30.453,13.228 45.488,58.222 48.723,89.036 3.196,30.44 -15.414,52.815 -39.151,70.507 C 83.862,15.655 60.065,19.658 43.245,17.62 27.643,15.73 14.007,7.058 0,0"
             style="fill:#8800aa;fill-opacity:1;fill-rule:nonzero;stroke:none"
             id="path32" />
        </g>
        <g
           id="g34"
           transform="translate(326.1961,203.641)">
          <path
             d="m 0,0 c -2.173,-6.748 -6.313,-12.729 -8.505,-19.47 -1.176,-3.615 -1.49,-8.232 1.497,-10.584 1.249,-0.982 2.869,-1.364 4.451,-1.505 8.535,-0.76 17.127,5.606 18.885,13.992 3.639,-1.241 5.727,-4.92 8.061,-7.975 2.195,-2.871 4.916,-5.422 8.207,-6.914 3.291,-1.491 7.2,-1.833 10.523,-0.413 3.323,1.42 5.882,4.762 5.883,8.376 10e-4,1.755 -0.564,3.455 -1.11,5.124 -2.772,8.467 -5.215,17.04 -7.322,25.696 -1.869,7.679 -3.792,15.977 -9.75,21.168 -4.386,3.822 -10.67,5.35 -16.321,3.967 C 9.592,30.262 3.345,26.164 2.372,20.815 1.107,13.857 2.236,6.943 0,0"
             style="fill:#000000;fill-opacity:1;fill-rule:nonzero;stroke:none"
             id="path36" />
        </g>
        <g
           id="g38"
           transform="translate(263.1888,111.3676)">
          <path
             d="m 0,0 c 2.327,0.261 4.588,0.73 6.646,1.33 13.355,3.891 25.917,14.777 34.689,25.237 4.087,4.874 7.828,10.494 8.275,16.839 0.448,6.345 -3.523,13.37 -9.815,14.306 C 35.235,58.39 30.86,55.875 27.03,53.31 11.771,43.086 -1.852,30.428 -13.168,15.961 -16.994,11.069 -21.122,5.037 -13.83,1.687 -9.742,-0.191 -4.738,-0.529 0,0"
             style="fill:#ffa18d;fill-opacity:1;fill-rule:nonzero;stroke:none"
             id="path40" />
        </g>
        <g
           id="g42"
           transform="translate(313.7591,136.2504)">
          <path
             d="m 0,0 c -2.979,-2.538 -6.075,-4.938 -9.276,-7.19 -3.277,2.683 -6.651,4.956 -9.85,7.721 -2.604,2.25 -5.404,4.208 -8.143,6.283 -4.559,3.457 -9.094,7.34 -12.695,11.873 5.399,3.049 19.212,12.844 20.858,13.835 5.231,3.148 10.754,5.709 16.466,7.677 13.872,4.78 28.861,6.06 43.523,3.724 1.516,-0.242 3.337,-0.81 3.637,-2.316 0.252,-1.27 -0.77,-2.408 -1.729,-3.277 C 39.545,35.394 36.033,32.748 32.974,29.619 28.864,25.414 26.893,20.468 24.63,15.181 22.444,10.074 19.888,5.1 17.25,0.213 15.329,-3.346 14.109,-8.231 11.101,-10.979 8.871,-13.015 4.979,-13.56 2.973,-11.303 1.25,-9.366 1.61,-6.411 2.074,-3.861 2.485,-1.602 2.896,0.658 3.306,2.917 2.221,1.926 1.119,0.953 0,0"
             style="fill:#ffcc00;fill-opacity:1;fill-rule:nonzero;stroke:none"
             id="path44" />
        </g>
        <g
           id="g46"
           transform="translate(366.2322,92.5199)">
          <path
             d="M 0,0 C 0.69,-2.598 2.476,-4.887 4.828,-6.187 7.18,-7.489 10.067,-7.786 12.635,-6.99"
             style="fill:none;stroke:#000000;stroke-width:1;stroke-linecap:round;stroke-linejoin:round;stroke-miterlimit:10;stroke-dasharray:none;stroke-opacity:1"
             id="path48" />
        </g>
        <g
           id="g50"
           transform="translate(317.8162,101.142)">
          <path
             d="m 0,0 h 58.843 c 0.323,0.253 0.632,0.523 0.915,0.823 1.444,1.527 2.182,3.579 2.746,5.604 0.391,1.402 0.717,2.823 0.977,4.257 0.784,4.319 0.63,8.562 0.761,12.912 0.132,4.377 0.225,8.757 0.14,13.135 -0.166,8.608 -1.008,17.312 -3.753,25.516 -0.691,2.066 -1.56,3.957 -2.582,5.677 -4.169,7.018 -8.549,11.227 -16.591,12.537 H 24.079 C 20.738,79.951 17.42,79.426 13.994,79.286 12.398,79.222 10.609,79.118 9.536,77.936 9.031,77.379 8.761,76.653 8.503,75.947 6.297,69.915 4.089,63.874 2.379,57.683 -1.164,44.855 -2.53,31.543 -3.882,18.304 -4.137,15.808 -4.278,13.269 -4.649,10.788 -5.221,6.968 -4.328,3.975 -1.498,1.27 -1.024,0.817 -0.522,0.396 0,0"
             style="fill:#ffcc00;fill-opacity:1;fill-rule:nonzero;stroke:none"
             id="path52" />
        </g>
        <g
           id="g54"
           transform="translate(232.9358,100.2856)">
          <path
             d="M 0,0 H 212.019"
             style="fill:none;stroke:#000000;stroke-width:3;stroke-linecap:round;stroke-linejoin:round;stroke-miterlimit:10;stroke-dasharray:none;stroke-opacity:1"
             id="path56" />
        </g>
        <g
           id="g58"
           transform="translate(316.6092,137.8139)">
          <path
             d="M 0,0 C 1.141,4.811 2.619,9.613 5.018,13.96"
             style="fill:none;stroke:#000000;stroke-width:1;stroke-linecap:round;stroke-linejoin:round;stroke-miterlimit:10;stroke-dasharray:none;stroke-opacity:1"
             id="path60" />
        </g>
        <g
           id="g62"
           transform="translate(319.6673,147.6059)">
          <path
             d="M 0,0 C 1.148,0.766 2.224,1.64 3.207,2.607"
             style="fill:none;stroke:#000000;stroke-width:1;stroke-linecap:round;stroke-linejoin:round;stroke-miterlimit:10;stroke-dasharray:none;stroke-opacity:1"
             id="path64" />
        </g>
        <g
           id="g66"
           transform="translate(394.9818,109.9682)">
          <path
             d="m 0,0 c 1.972,1.098 3.94,2.282 5.996,3.489 3.488,2.243 7.059,4.032 10.808,5.842 -8.28,5.332 -15.75,11.917 -22.078,19.463 -4.087,4.874 -7.828,10.493 -8.275,16.838 -0.448,6.345 3.524,13.37 9.815,14.305 4.56,0.679 8.935,-1.835 12.765,-4.402 15.259,-10.223 28.883,-22.881 40.198,-37.348 2.644,-3.38 5.267,-7.141 5.436,-11.429 0.392,-9.911 -10.447,-14.446 -18.09,-17.547 -12.116,-4.914 -24.937,-8.088 -37.947,-9.394 -1.478,-0.147 -2.973,-0.275 -4.385,-0.736 -1.489,-0.486 -2.833,-1.328 -4.256,-1.985 -2.289,-1.06 -4.758,-1.63 -7.218,-2.132 -1.502,-0.306 -4.876,-1.74 -6.206,-0.319 -0.495,0.529 -0.047,1.376 0.403,1.946 -1.252,-0.598 -2.728,-0.712 -4.056,-0.313 -0.688,0.206 -1.376,0.587 -1.69,1.233 -0.313,0.646 -0.071,1.58 0.614,1.795 -0.76,0.062 -1.347,-0.399 -2.123,-0.266 -0.627,0.107 -1.234,0.469 -1.517,1.038 -0.388,0.781 -0.078,1.764 0.512,2.404 0.59,0.642 1.407,1.018 2.201,1.377 2.225,1.008 5.866,1.875 7.41,3.828 -2.212,-0.537 -4.372,-1.354 -6.418,-2.349 -1.206,-0.588 -3.434,-2.242 -4.591,-0.6 -0.381,0.54 -0.323,1.299 -0.016,1.884 0.306,0.585 0.821,1.03 1.342,1.437 4.516,3.52 10.158,5.069 15.668,6.239 C -10.096,-4.513 -5.024,-2.797 0,0"
             style="fill:#ffa18d;fill-opacity:1;fill-rule:nonzero;stroke:none"
             id="path68" />
        </g>
        <g
           id="g70"
           transform="translate(381.306,138.0531)">
          <path
             d="m 0,0 c 3.658,-2.191 7.395,-4.865 11.211,-6.699 0.478,0.264 0.944,0.551 1.419,0.822 1.792,1.907 3.683,3.721 5.663,5.433 2.604,2.25 5.404,4.207 8.142,6.282 4.56,3.456 9.094,7.341 12.695,11.873 -5.398,3.05 -19.211,12.845 -20.857,13.835 -5.232,3.147 -10.754,5.709 -16.466,7.678 -13.872,4.78 -28.862,6.058 -43.524,3.722 -1.515,-0.241 -3.337,-0.809 -3.636,-2.315 -0.252,-1.27 0.769,-2.407 1.729,-3.277 3.245,-2.936 6.758,-5.582 9.817,-8.711 4.11,-4.205 6.081,-9.152 8.344,-14.438 2.443,-5.718 5.424,-11.18 8.278,-16.697 0.9,-1.741 1.643,-5.377 2.827,-6.763 1.979,-2.319 8.296,-0.328 10.878,0.384 1.897,0.523 2.409,-0.225 3.749,1.728 C 1.037,-6.023 1.376,-0.819 0,0"
             style="fill:#ffcc00;fill-opacity:1;fill-rule:nonzero;stroke:none"
             id="path72" />
        </g>
        <g
           id="g74"
           transform="translate(356.2025,178.4467)">
          <path
             d="m 0,0 c -0.82,-0.507 -1.696,-0.911 -2.534,-1.208 -3.115,-1.102 -7.093,-1.409 -10.305,-0.596 -1.522,0.386 -2.972,1.026 -4.304,1.854 -0.66,0.41 -1.291,0.865 -1.893,1.356 -0.436,0.355 -1.013,0.93 -1.248,1.452 0.854,0.315 1.607,0.382 2.353,0.973 0.614,0.486 1.088,1.143 1.385,1.864 0.503,1.222 0.732,14.49 0.521,14.49 H -0.068 C -0.118,20.186 -0.025,12.15 0.006,11.339 0.067,9.703 -0.236,8.055 -0.005,6.435 0.126,5.515 0.517,4.572 1.234,3.955 1.606,3.635 2.024,3.452 2.496,3.335 3.139,3.174 3.221,3.292 2.879,2.734 2.206,1.633 1.159,0.715 0,0"
             style="fill:#ffa18d;fill-opacity:1;fill-rule:nonzero;stroke:none"
             id="path76" />
        </g>
        <g
           id="g78"
           transform="translate(363.0579,201.6254)">
          <path
             d="m 0,0 c -0.3,-2.426 -0.734,-4.921 -2.08,-6.961 -2.171,-3.291 -6.281,-4.744 -10.195,-5.222 -4.792,-0.585 -10.179,0.206 -13.384,3.818 -1.721,1.939 -2.612,4.469 -3.299,6.97 -0.937,3.421 -1.566,6.926 -1.877,10.459 -0.268,3.04 -0.282,6.202 0.884,9.021 1.531,3.7 4.973,6.373 8.742,7.725 3.769,1.351 7.859,1.521 11.859,1.349 1.905,-0.082 3.838,-0.246 5.62,-0.924 C -1.929,25.55 0.465,23.91 0.597,21.774 0.66,20.749 0.407,19.638 0.434,18.582 0.591,12.381 0.769,6.212 0,0"
             style="fill:#ffa18d;fill-opacity:1;fill-rule:nonzero;stroke:none"
             id="path80" />
        </g>
        <g
           id="g82"
           transform="translate(364.4354,224.8959)">
          <path
             d="m 0,0 c -0.444,1.253 -1.026,2.463 -1.792,3.612 -3.307,4.957 -7.536,8.221 -13.491,9.637 -4.192,0.996 -8.753,0.698 -12.605,-1.231 -5.169,-2.591 -8.551,-8.218 -8.794,-13.949 -0.079,-1.855 -0.178,-13.078 3.877,-11.873 0.469,0.139 0.812,0.532 1.116,0.914 1.796,2.264 3.17,4.827 4.534,7.374 0.929,1.736 1.874,3.516 2.164,5.463 1.799,-1.805 4.613,-2.177 7.14,-1.857 2.247,0.285 4.432,1.038 6.377,2.197 -1.303,-0.579 -2.533,-1.319 -3.656,-2.197 -0.405,-0.318 -0.823,-0.7 -0.89,-1.209 -0.072,-0.561 0.33,-1.099 0.835,-1.353 0.505,-0.253 1.092,-0.276 1.657,-0.265 3.026,0.06 6.442,0.993 8.808,2.96 1.94,-3.492 3.141,-7.391 3.504,-11.369 0.283,0.213 2.837,1.047 2.872,0.327 C 1.444,-8.495 1.429,-4.026 0,0"
             style="fill:#000000;fill-opacity:1;fill-rule:nonzero;stroke:none"
             id="path84" />
        </g>
        <g
           id="g86"
           transform="translate(327.8519,209.7767)">
          <path
             d="M 0,0 C -0.463,-1.365 -0.254,-2.943 0.452,-4.184 1.093,-5.312 2.196,-6.199 3.429,-6.27 4.442,-6.326 5.456,-5.814 6.104,-4.981 7.343,-3.39 7.159,0.059 5.874,1.646 4.098,3.84 0.81,2.387 0,0"
             style="fill:#ffa18d;fill-opacity:1;fill-rule:nonzero;stroke:none"
             id="path88" />
        </g>
        <g
           id="g90"
           transform="translate(333.2645,207.5873)">
          <path
             d="M 0,0 C -0.216,0.836 -0.852,1.553 -1.657,1.865 -2.462,2.178 -3.416,2.079 -4.139,1.607"
             style="fill:none;stroke:#000000;stroke-width:1;stroke-linecap:round;stroke-linejoin:round;stroke-miterlimit:10;stroke-dasharray:none;stroke-opacity:1"
             id="path92" />
        </g>
        <g
           id="g94"
           transform="translate(369.1209,209.7767)">
          <path
             d="m 0,0 c 0.463,-1.365 0.254,-2.943 -0.451,-4.184 -0.642,-1.128 -1.745,-2.015 -2.978,-2.086 -1.012,-0.056 -2.026,0.456 -2.675,1.289 -1.239,1.591 -1.055,5.04 0.231,6.627 C -4.097,3.84 -0.81,2.387 0,0"
             style="fill:#ffa18d;fill-opacity:1;fill-rule:nonzero;stroke:none"
             id="path96" />
        </g>
        <g
           id="g98"
           transform="translate(363.7083,207.5873)">
          <path
             d="M 0,0 C 0.216,0.836 0.853,1.553 1.658,1.865 2.463,2.178 3.416,2.079 4.14,1.607"
             style="fill:none;stroke:#000000;stroke-width:1;stroke-linecap:round;stroke-linejoin:round;stroke-miterlimit:10;stroke-dasharray:none;stroke-opacity:1"
             id="path100" />
        </g>
        <g
           id="g102"
           transform="translate(343.3538,199.8851)">
          <path
             d="M 0,0 C 1.184,-3.534 6.116,-4.174 8.526,-1.527 9.214,-0.771 9.662,0.17 10.03,1.124"
             style="fill:#ffffff;fill-opacity:1;fill-rule:nonzero;stroke:none"
             id="path104" />
        </g>
      </g>
    </g>
    <g
       id="g106">
      <g
         id="g108"
         clip-path="url(#clipPath112)">
        <g
           id="g114"
           transform="translate(337.4334,187.1674)">
          <path
             d="m 0,0 c 0.055,-0.357 0.145,-0.736 0.414,-0.979 0.287,-0.257 0.714,-0.295 1.095,-0.232 0.972,0.162 1.791,0.408 2.79,0.315 0.913,-0.083 1.815,-0.581 2.733,-0.213 0.428,0.171 0.764,0.511 1.148,0.766 1.714,1.138 4.071,0.448 5.996,1.175 0.406,0.153 0.828,0.421 0.918,0.846 0.274,1.3 -4.113,0.158 -4.822,0.171 C 9.229,1.866 8.211,2.004 7.188,2.195 6.315,2.358 5.58,2.359 4.731,2.711 3.625,3.17 2.269,4.47 0.978,3.766 -0.173,3.138 -0.171,1.102 0,0"
             style="fill:#000000;fill-opacity:1;fill-rule:nonzero;stroke:none"
             id="path116" />
        </g>
      </g>
    </g>
    <g
       id="g118">
      <g
         id="g120"
         clip-path="url(#clipPath124)">
        <g
           id="g126"
           transform="translate(363.9178,212.85)">
          <path
             d="m 0,0 c -0.195,-2.78 -1.278,-7.777 -3.844,-10.913 -1.536,-1.878 -3.686,-3.11 -5.865,-4.176"
             style="fill:none;stroke:#4c81bd;stroke-width:2;stroke-linecap:round;stroke-linejoin:round;stroke-miterlimit:10;stroke-dasharray:none;stroke-opacity:1"
             id="path128" />
        </g>
        <g
           id="g130"
           transform="translate(359.5511,181.8978)">
          <path
             d="m 0,0 c -0.454,-1.475 -1.53,-2.706 -2.818,-3.555 -1.289,-0.847 -2.781,-1.341 -4.289,-1.667 -4.819,-1.041 -10.052,-0.383 -14.29,2.136 -1.043,0.62 -2.04,1.364 -2.738,2.357"
             style="fill:none;stroke:#000000;stroke-width:1;stroke-linecap:round;stroke-linejoin:round;stroke-miterlimit:10;stroke-dasharray:none;stroke-opacity:1"
             id="path132" />
        </g>
        <g
           id="g134"
           transform="translate(350.5413,224.0219)">
          <path
             d="M 0,0 C 1.249,0.649 2.498,1.298 3.747,1.947"
             style="fill:none;stroke:#9a3360;stroke-width:1;stroke-linecap:round;stroke-linejoin:round;stroke-miterlimit:10;stroke-dasharray:none;stroke-opacity:1"
             id="path136" />
        </g>
        <g
           id="g138"
           transform="translate(359.9749,223.3568)">
          <path
             d="M 0,0 C 0.228,0.304 0.455,0.607 0.682,0.91"
             style="fill:none;stroke:#9a3360;stroke-width:1;stroke-linecap:round;stroke-linejoin:round;stroke-miterlimit:10;stroke-dasharray:none;stroke-opacity:1"
             id="path140" />
        </g>
        <g
           id="g142"
           transform="translate(382.368,137.557)">
          <path
             d="M 0,0 C -1.12,2.226 -1.997,4.574 -2.611,6.989"
             style="fill:none;stroke:#000000;stroke-width:1;stroke-linecap:round;stroke-linejoin:round;stroke-miterlimit:10;stroke-dasharray:none;stroke-opacity:1"
             id="path144" />
        </g>
        <g
           id="g146"
           transform="translate(371.4612,86.4291)">
          <path
             d="M 0,0 C 3.033,0.472 6,1.36 8.792,2.633"
             style="fill:none;stroke:#000000;stroke-width:1;stroke-linecap:round;stroke-linejoin:round;stroke-miterlimit:10;stroke-dasharray:none;stroke-opacity:1"
             id="path148" />
        </g>
        <g
           id="g150"
           transform="translate(366.3714,89.1332)">
          <path
             d="M 0,0 C 3.966,1.041 7.841,2.43 11.565,4.145"
             style="fill:none;stroke:#000000;stroke-width:1;stroke-linecap:round;stroke-linejoin:round;stroke-miterlimit:10;stroke-dasharray:none;stroke-opacity:1"
             id="path152" />
        </g>
        <g
           id="g154"
           transform="translate(331.9588,95.7631)">
          <path
             d="m 0,0 c -0.307,0.586 -0.821,1.031 -1.342,1.437 -4.517,3.52 -10.159,5.07 -15.669,6.24 -5.601,1.189 -10.674,2.905 -15.697,5.701 -7.617,4.239 -14.746,9.507 -22.844,12.854 -6.58,2.72 -12.698,8.813 -19.696,7.496 -2.747,-0.517 -4.9,-1.492 -7.026,-3.307 -11.734,-10.017 -0.413,-22.732 12.99,-27.831 12.221,-4.651 24.937,-8.089 37.947,-9.394 1.478,-0.148 2.973,-0.275 4.385,-0.737 1.49,-0.486 2.834,-1.327 4.256,-1.985 2.289,-1.06 4.758,-1.63 7.218,-2.131 1.502,-0.306 4.876,-1.741 6.206,-0.321 0.496,0.531 0.047,1.378 -0.402,1.948 1.251,-0.599 2.727,-0.712 4.056,-0.314 0.687,0.207 1.376,0.587 1.689,1.234 0.313,0.645 0.071,1.58 -0.614,1.794 0.761,0.063 1.347,-0.399 2.124,-0.266 0.627,0.107 1.233,0.47 1.517,1.039 0.387,0.78 0.077,1.763 -0.513,2.404 -0.59,0.642 -1.407,1.018 -2.201,1.377 -2.225,1.008 -5.866,1.874 -7.41,3.826 2.213,-0.536 4.373,-1.352 6.418,-2.348 1.207,-0.587 3.434,-2.241 4.591,-0.599 C 0.364,-1.343 0.306,-0.585 0,0"
             style="fill:#ffa18d;fill-opacity:1;fill-rule:nonzero;stroke:none"
             id="path156" />
        </g>
        <g
           id="g158"
           transform="translate(283.9866,118.9291)">
          <path
             d="M 0,0 C -3.44,0.323 -6.923,0.188 -10.329,-0.399"
             style="fill:none;stroke:#000000;stroke-width:1;stroke-linecap:round;stroke-linejoin:round;stroke-miterlimit:10;stroke-dasharray:none;stroke-opacity:1"
             id="path160" />
        </g>
        <g
           id="g162"
           transform="translate(328.8275,88.349)">
          <path
             d="M 0,0 C -4.558,1.083 -8.951,2.854 -12.986,5.232"
             style="fill:none;stroke:#000000;stroke-width:1;stroke-linecap:round;stroke-linejoin:round;stroke-miterlimit:10;stroke-dasharray:none;stroke-opacity:1"
             id="path164" />
        </g>
        <g
           id="g166"
           transform="translate(322.8211,85.3881)">
          <path
             d="M 0,0 C -3.593,0.755 -7.039,2.204 -10.091,4.244"
             style="fill:none;stroke:#000000;stroke-width:1;stroke-linecap:round;stroke-linejoin:round;stroke-miterlimit:10;stroke-dasharray:none;stroke-opacity:1"
             id="path168" />
        </g>
        <g
           id="g170"
           transform="translate(411.1995,118.7934)">
          <path
             d="M 0,0 C 4.183,0.359 8.379,0.554 12.578,0.583"
             style="fill:none;stroke:#000000;stroke-width:1;stroke-linecap:round;stroke-linejoin:round;stroke-miterlimit:10;stroke-dasharray:none;stroke-opacity:1"
             id="path172" />
        </g>
        <g
           id="g174"
           transform="translate(446.9959,116.8822)">
          <path
             d="M 0,0 C -0.286,-1.691 -0.865,-3.332 -1.702,-4.828"
             style="fill:none;stroke:#000000;stroke-width:1;stroke-linecap:round;stroke-linejoin:round;stroke-miterlimit:10;stroke-dasharray:none;stroke-opacity:1"
             id="path176" />
        </g>
        <g
           id="g178"
           transform="translate(247.5662,118.2992)">
          <path
             d="M 0,0 C -0.335,-2.018 0.309,-4.175 1.695,-5.68"
             style="fill:none;stroke:#000000;stroke-width:1;stroke-linecap:round;stroke-linejoin:round;stroke-miterlimit:10;stroke-dasharray:none;stroke-opacity:1"
             id="path180" />
        </g>
        <g
           id="g182"
           transform="translate(371.9988,96.9897)">
          <path
             d="M 0,0 C 0.994,0.427 1.989,0.853 2.983,1.279"
             style="fill:none;stroke:#000000;stroke-width:1;stroke-linecap:round;stroke-linejoin:round;stroke-miterlimit:10;stroke-dasharray:none;stroke-opacity:1"
             id="path184" />
        </g>
        <g
           id="g186"
           transform="translate(321.1248,96.2475)">
          <path
             d="M 0,0 -2.632,1.345"
             style="fill:none;stroke:#000000;stroke-width:1;stroke-linecap:round;stroke-linejoin:round;stroke-miterlimit:10;stroke-dasharray:none;stroke-opacity:1"
             id="path188" />
        </g>
        <g
           id="g190"
           transform="translate(339.3743,224.6674)">
          <path
             d="M 0,0 C 2.061,1.208 3.855,2.869 5.219,4.831"
             style="fill:none;stroke:#9a3360;stroke-width:1;stroke-linecap:round;stroke-linejoin:round;stroke-miterlimit:10;stroke-dasharray:none;stroke-opacity:1"
             id="path192" />
        </g>
        <g
           id="g194"
           transform="translate(356.9925,197.1889)">
          <path
             d="m 0,0 c 0,-1.824 -1.479,-3.303 -3.303,-3.303 -1.824,0 -3.302,1.479 -3.302,3.303 0,1.824 1.478,3.303 3.302,3.303 C -1.479,3.303 0,1.824 0,0"
             style="fill:#000000;fill-opacity:1;fill-rule:nonzero;stroke:none"
             id="path196" />
        </g>
        <g
           id="g198"
           transform="translate(301.7161,80.3256)">
          <path
             d="m 0,0 84.683,0.006 c 1.244,0 2.595,3.827 2.595,3.827 0,1.245 -1.07,0.673 -2.315,0.673 H 0 C -1.244,4.506 -2.253,3.497 -2.253,2.253 -2.253,1.009 -1.244,0 0,0"
             style="fill:#000000;fill-opacity:1;fill-rule:nonzero;stroke:none"
             id="path200" />
        </g>
        <g
           id="g202"
           transform="translate(314.3196,82.4037)">
          <path
             d="m 0,0 h 74.359 l 15.446,38.142 c 0.503,1.241 -0.411,2.597 -1.751,2.597 H 17.77 c -0.77,0 -1.462,-0.467 -1.75,-1.179 z"
             style="fill:#000000;fill-opacity:1;fill-rule:nonzero;stroke:none"
             id="path204" />
        </g>
        <g
           id="g206"
           transform="translate(366.0443,103.727)">
          <path
             d="m 0,0 c -0.615,-1.607 -2.689,-2.91 -4.633,-2.91 -1.944,0 -3.021,1.303 -2.406,2.91 0.615,1.607 2.689,2.91 4.633,2.91 C -0.462,2.91 0.615,1.607 0,0 Z"
             style="fill:none;stroke:#ffffff;stroke-width:0.5;stroke-linecap:butt;stroke-linejoin:miter;stroke-miterlimit:10;stroke-dasharray:none;stroke-opacity:1"
             id="path208" />
        </g>
        <path
           d="m 331.412,290.047 h 91.166 v 117.518 h -91.166 z"
           style="fill:#ffcc00;fill-opacity:1;fill-rule:nonzero;stroke:none"
           id="path210" />
        <path
           d="m 413.918,290.5 h -72.809 v 91.165 h 72.809 z"
           style="fill:none;stroke:#000000;stroke-width:1;stroke-linecap:round;stroke-linejoin:round;stroke-miterlimit:10;stroke-dasharray:none;stroke-opacity:1"
           id="path212" />
        <g
           id="g214"
           transform="translate(452.9715,397.6449)">
          <path
             d="m 0,0 h -151.749 l 25.165,37.892 h 101.472 z"
             style="fill:#ec6e4c;fill-opacity:1;fill-rule:nonzero;stroke:none"
             id="path216" />
        </g>
        <g
           id="g218"
           transform="translate(313.869,397.6449)">
          <path
             d="m 0,0 c 0,-5.542 -2.831,-10.036 -6.323,-10.036 -3.492,0 -6.323,4.494 -6.323,10.036"
             style="fill:#68cae0;fill-opacity:1;fill-rule:nonzero;stroke:none"
             id="path220" />
        </g>
        <g
           id="g222"
           transform="translate(326.5145,397.6449)">
          <path
             d="m 0,0 c 0,-5.542 -2.831,-10.036 -6.323,-10.036 -3.492,0 -6.323,4.494 -6.323,10.036"
             style="fill:#ec6e4c;fill-opacity:1;fill-rule:nonzero;stroke:none"
             id="path224" />
        </g>
        <g
           id="g226"
           transform="translate(339.16,397.6449)">
          <path
             d="m 0,0 c 0,-5.542 -2.831,-10.036 -6.323,-10.036 -3.492,0 -6.323,4.494 -6.323,10.036"
             style="fill:#68cae0;fill-opacity:1;fill-rule:nonzero;stroke:none"
             id="path228" />
        </g>
        <g
           id="g230"
           transform="translate(351.806,397.6449)">
          <path
             d="m 0,0 c 0,-5.542 -2.831,-10.036 -6.323,-10.036 -3.492,0 -6.323,4.494 -6.323,10.036"
             style="fill:#ec6e4c;fill-opacity:1;fill-rule:nonzero;stroke:none"
             id="path232" />
        </g>
        <g
           id="g234"
           transform="translate(364.4515,397.6449)">
          <path
             d="m 0,0 c 0,-5.542 -2.831,-10.036 -6.323,-10.036 -3.492,0 -6.323,4.494 -6.323,10.036"
             style="fill:#68cae0;fill-opacity:1;fill-rule:nonzero;stroke:none"
             id="path236" />
        </g>
        <g
           id="g238"
           transform="translate(377.097,397.6449)">
          <path
             d="m 0,0 c 0,-5.542 -2.831,-10.036 -6.323,-10.036 -3.492,0 -6.323,4.494 -6.323,10.036"
             style="fill:#ec6e4c;fill-opacity:1;fill-rule:nonzero;stroke:none"
             id="path240" />
        </g>
        <g
           id="g242"
           transform="translate(389.743,397.6449)">
          <path
             d="m 0,0 c 0,-5.542 -2.831,-10.036 -6.323,-10.036 -3.492,0 -6.323,4.494 -6.323,10.036"
             style="fill:#68cae0;fill-opacity:1;fill-rule:nonzero;stroke:none"
             id="path244" />
        </g>
        <g
           id="g246"
           transform="translate(402.3885,397.6449)">
          <path
             d="m 0,0 c 0,-5.542 -2.831,-10.036 -6.323,-10.036 -3.492,0 -6.323,4.494 -6.323,10.036"
             style="fill:#ec6e4c;fill-opacity:1;fill-rule:nonzero;stroke:none"
             id="path248" />
        </g>
        <g
           id="g250"
           transform="translate(415.0345,397.6449)">
          <path
             d="m 0,0 c 0,-5.542 -2.831,-10.036 -6.323,-10.036 -3.492,0 -6.323,4.494 -6.323,10.036"
             style="fill:#68cae0;fill-opacity:1;fill-rule:nonzero;stroke:none"
             id="path252" />
        </g>
        <g
           id="g254"
           transform="translate(427.68,397.6449)">
          <path
             d="m 0,0 c 0,-5.542 -2.831,-10.036 -6.323,-10.036 -3.492,0 -6.323,4.494 -6.323,10.036"
             style="fill:#ec6e4c;fill-opacity:1;fill-rule:nonzero;stroke:none"
             id="path256" />
        </g>
        <g
           id="g258"
           transform="translate(440.3255,397.6449)">
          <path
             d="m 0,0 c 0,-5.542 -2.831,-10.036 -6.323,-10.036 -3.492,0 -6.323,4.494 -6.323,10.036"
             style="fill:#68cae0;fill-opacity:1;fill-rule:nonzero;stroke:none"
             id="path260" />
        </g>
        <g
           id="g262"
           transform="translate(452.9715,397.6449)">
          <path
             d="m 0,0 c 0,-5.542 -2.831,-10.036 -6.323,-10.036 -3.492,0 -6.323,4.494 -6.323,10.036"
             style="fill:#ec6e4c;fill-opacity:1;fill-rule:nonzero;stroke:none"
             id="path264" />
        </g>
        <g
           id="g266"
           transform="translate(334.8431,435.5365)">
          <path
             d="M 0,0 -21.14,-38.138 H -33.824 L -8.456,0"
             style="fill:#68cae0;fill-opacity:1;fill-rule:nonzero;stroke:none"
             id="path268" />
        </g>
        <g
           id="g270"
           transform="translate(351.7552,435.5365)">
          <path
             d="M 0,0 -12.684,-38.138 H -25.368 L -8.456,0"
             style="fill:#68cae0;fill-opacity:1;fill-rule:nonzero;stroke:none"
             id="path272" />
        </g>
        <g
           id="g274"
           transform="translate(360.2112,435.5365)">
          <path
             d="M 0,0 -8.456,-38.138 H 4.228 L 8.456,0"
             style="fill:#68cae0;fill-opacity:1;fill-rule:nonzero;stroke:none"
             id="path276" />
        </g>
        <g
           id="g278"
           transform="translate(377.1234,435.5365)">
          <path
             d="M 0,0 V -38.138 H 12.684 L 8.456,0"
             style="fill:#68cae0;fill-opacity:1;fill-rule:nonzero;stroke:none"
             id="path280" />
        </g>
        <g
           id="g282"
           transform="translate(394.035,435.5365)">
          <path
             d="M 0,0 8.456,-38.138 H 21.14 L 8.456,0"
             style="fill:#68cae0;fill-opacity:1;fill-rule:nonzero;stroke:none"
             id="path284" />
        </g>
        <g
           id="g286"
           transform="translate(410.9471,435.5365)">
          <path
             d="M 0,0 16.912,-38.138 H 29.596 L 8.456,0"
             style="fill:#68cae0;fill-opacity:1;fill-rule:nonzero;stroke:none"
             id="path288" />
        </g>
        <g
           id="g290"
           transform="translate(301.2308,397.3988)">
          <path
             d="M 0,0 H 151.291"
             style="fill:none;stroke:#000000;stroke-width:1;stroke-linecap:round;stroke-linejoin:round;stroke-miterlimit:10;stroke-dasharray:none;stroke-opacity:1"
             id="path292" />
        </g>
        <g
           id="g294"
           transform="translate(395.138,342.6156)">
          <path
             d="m 0,0 c 0,-10.32 -18.143,-36.282 -18.143,-36.282 0,0 -18.143,25.962 -18.143,36.282 0,10.319 8.123,18.685 18.143,18.685 C -8.123,18.685 0,10.319 0,0"
             style="fill:#e93808;fill-opacity:1;fill-rule:nonzero;stroke:none"
             id="path296" />
        </g>
        <g
           id="g298"
           transform="translate(386.0667,342.3871)">
          <path
             d="m 0,0 c 0,-5.159 -4.062,-9.343 -9.072,-9.343 -5.01,0 -9.071,4.184 -9.071,9.343 0,5.16 4.061,9.343 9.071,9.343 C -4.062,9.343 0,5.16 0,0"
             style="fill:#100909;fill-opacity:1;fill-rule:nonzero;stroke:none"
             id="path300" />
        </g>
        <g
           id="g302"
           transform="translate(322.3123,291.5365)">
          <path
             d="M 0,0 H 111.957"
             style="fill:none;stroke:#000000;stroke-width:3;stroke-linecap:round;stroke-linejoin:round;stroke-miterlimit:10;stroke-dasharray:none;stroke-opacity:1"
             id="path304" />
        </g>
        <g
           id="g306"
           transform="translate(133.9715,75.5365)">
          <path
             d="m 0,0 h -59.02 c -1.656,0 -2.998,1.343 -2.998,2.999 v 127.752 c 0,1.656 1.342,2.999 2.998,2.999 H 0 c 1.656,0 2.999,-1.343 2.999,-2.999 V 2.999 C 2.999,1.343 1.656,0 0,0"
             style="fill:#000000;fill-opacity:1;fill-rule:nonzero;stroke:none"
             id="path308" />
        </g>
        <path
           d="M 136.97,86.926 H 71.953 v 110.972 h 65.017 z"
           style="fill:#86cfe0;fill-opacity:1;fill-rule:nonzero;stroke:none"
           id="path310" />
        <g
           id="g312"
           transform="translate(104.1116,104.0258)">
          <path
             d="m 0,0 v 0 c -10.514,0 -19.036,8.523 -19.036,19.036 0,10.514 8.522,19.036 19.036,19.036 10.513,0 19.036,-8.522 19.036,-19.036 C 19.036,8.523 10.513,0 0,0"
             style="fill:#64c3d8;fill-opacity:1;fill-rule:nonzero;stroke:none"
             id="path314" />
        </g>
        <g
           id="g316"
           transform="translate(93.7806,204.642)">
          <path
             d="M 0,0 H 21.362"
             style="fill:none;stroke:#68cae0;stroke-width:1;stroke-linecap:round;stroke-linejoin:miter;stroke-miterlimit:10;stroke-dasharray:none;stroke-opacity:1"
             id="path318" />
        </g>
        <g
           id="g320"
           transform="translate(71.8157,142.8197)">
          <path
             d="M 0,0 C 0.02,18.359 0.061,36.719 0.138,55.078"
             style="fill:none;stroke:#000000;stroke-width:1;stroke-linecap:round;stroke-linejoin:miter;stroke-miterlimit:10;stroke-dasharray:none;stroke-opacity:1"
             id="path322" />
        </g>
        <g
           id="g324"
           transform="translate(71.7957,99.9291)">
          <path
             d="M 0,0 C 0,3.151 0,6.302 0.001,9.453"
             style="fill:none;stroke:#000000;stroke-width:1;stroke-linecap:round;stroke-linejoin:miter;stroke-miterlimit:10;stroke-dasharray:none;stroke-opacity:1"
             id="path326" />
        </g>
        <g
           id="g328"
           transform="translate(136.7967,118.1244)">
          <path
             d="M 0,0 C -0.001,-5.424 -0.001,-10.849 0,-16.272"
             style="fill:none;stroke:#000000;stroke-width:1;stroke-linecap:round;stroke-linejoin:miter;stroke-miterlimit:10;stroke-dasharray:none;stroke-opacity:1"
             id="path330" />
        </g>
        <g
           id="g332"
           transform="translate(136.97,197.8978)">
          <path
             d="M 0,0 C -0.107,-20.002 -0.149,-40.004 -0.165,-60.006"
             style="fill:none;stroke:#000000;stroke-width:1;stroke-linecap:round;stroke-linejoin:miter;stroke-miterlimit:10;stroke-dasharray:none;stroke-opacity:1"
             id="path334" />
        </g>
        <g
           id="g336"
           transform="translate(85.4188,158.9564)">
          <path
             d="M 0,0 V 0 C -2.632,-1.045 -5.612,0.241 -6.657,2.873 L -7.82,5.801 c -1.045,2.632 0.241,5.612 2.873,6.657 2.632,1.045 5.612,-0.241 6.657,-2.873 L 2.873,6.657 C 3.918,4.025 2.631,1.045 0,0"
             style="fill:#09222f;fill-opacity:1;fill-rule:nonzero;stroke:none"
             id="path338" />
        </g>
        <g
           id="g340"
           transform="translate(101.0047,132.6664)">
          <path
             d="M 0,0 C 0.271,-1.195 0.558,-3.462 0.611,-5.354 0.638,-6.304 1.369,-7.189 2.116,-7.143 4.738,-6.978 7.514,-4.821 7.38,-3 8.083,7.081 3.8,17.93 -0.224,25.475 c -1.145,2.146 -3.68,2.929 -5.21,4.594 -1.552,1.69 -2.601,3.891 -4.829,4.078 -1.069,0.09 -2.035,-0.347 -2.745,-1.154 -0.626,-0.709 -1.637,-1.558 -1.641,-2.91 -0.003,-0.981 0.424,-2.072 1.05,-2.854 C -3.054,14.067 -1.13,4.977 0,0"
             style="fill:#09222f;fill-opacity:1;fill-rule:nonzero;stroke:none"
             id="path342" />
        </g>
        <g
           id="g344"
           transform="translate(113.1805,182.1762)">
          <path
             d="m 0,0 c -1.917,5.573 -1.505,5.564 -1.787,11.386 5.68,4.892 17.106,20.51 22.627,25.817 l 24.241,-61.047 c -6.694,0.071 -26.794,5.717 -33.45,5.438 C 9.791,-16.275 2.784,-8.097 0,0"
             style="fill:#ffcc00;fill-opacity:1;fill-rule:nonzero;stroke:none"
             id="path346" />
        </g>
        <g
           id="g348"
           transform="translate(120.3939,197.2553)">
          <path
             d="m 0,0 c 0.7,-0.216 5.728,-20.284 15.09,-31.75 -15.275,-0.879 -23.996,-6.618 -39.081,-9.271 l -5.528,26.077 C -17.578,-7.312 -0.509,0.156 0,0"
             style="fill:#ffcc00;fill-opacity:1;fill-rule:nonzero;stroke:none"
             id="path350" />
        </g>
        <g
           id="g352"
           transform="translate(137.5218,185.2201)">
          <path
             d="m 0,0 c 6.694,-16.857 16.064,-28.957 20.93,-27.025 4.865,1.931 3.382,17.164 -3.311,34.021 C 10.925,23.854 1.555,35.953 -3.311,34.021 -8.176,32.09 -6.693,16.857 0,0"
             style="fill:#e93808;fill-opacity:1;fill-rule:nonzero;stroke:none"
             id="path354" />
        </g>
        <g
           id="g356"
           transform="translate(101.577,156.7377)">
          <path
             d="m 0,0 -0.915,-0.363 c -7.208,-2.863 -15.372,0.66 -18.234,7.868 -2.862,7.209 0.661,15.372 7.869,18.234 l 0.915,0.364 z"
             style="fill:#3364ac;fill-opacity:1;fill-rule:nonzero;stroke:none"
             id="path358" />
        </g>
      </g>
    </g>
    <g
       id="g360">
      <g
         id="g362"
         clip-path="url(#clipPath366)">
        <g
           id="g368"
           transform="translate(149.2117,189.7016)">
          <path
             d="m 0,0 c 2.049,-5.16 -0.274,-10.926 -5.188,-12.877 -4.915,-1.951 -10.56,0.649 -12.609,5.81 -2.049,5.161 0.274,10.925 5.189,12.878 C -7.694,7.762 -2.049,5.16 0,0"
             style="fill:#000000;fill-opacity:1;fill-rule:nonzero;stroke:none"
             id="path370" />
        </g>
      </g>
    </g>
    <g
       id="g372">
      <g
         id="g374"
         clip-path="url(#clipPath378)">
        <g
           id="g380"
           transform="translate(134.469,218.5922)">
          <path
             d="m 0,0 c -1.979,-0.786 -2.817,-4.785 -2.242,-10.696 0.619,-6.363 2.73,-14.325 5.945,-22.418 3.213,-8.094 7.138,-15.334 11.053,-20.389 3.637,-4.696 6.986,-7.025 8.969,-6.245 3.941,1.564 3.394,15.245 -3.704,33.114 C 16.809,-18.54 12.884,-11.3 8.969,-6.245 5.87,-2.243 2.977,0.044 0.964,0.146 0.615,0.164 0.293,0.115 0,0 m 13.651,-54.359 c -3.992,5.155 -7.986,12.516 -11.247,20.729 -3.261,8.213 -5.405,16.31 -6.036,22.798 -0.669,6.861 0.409,11.056 3.116,12.131 2.706,1.074 6.369,-1.238 10.59,-6.689 3.991,-5.155 7.986,-12.516 11.247,-20.728 6.086,-15.322 8.841,-32.577 2.92,-34.929 -0.495,-0.196 -1.021,-0.28 -1.577,-0.252 -2.486,0.126 -5.563,2.486 -9.013,6.94"
             style="fill:#1b203f;fill-opacity:1;fill-rule:nonzero;stroke:none"
             id="path382" />
        </g>
        <g
           id="g384"
           transform="translate(125.4857,163.8441)">
          <path
             d="M 0,0 C -5.822,5.096 -8.925,12.539 -11.836,19.707"
             style="fill:none;stroke:#1c1c1b;stroke-width:1;stroke-linecap:round;stroke-linejoin:round;stroke-miterlimit:10;stroke-dasharray:none;stroke-opacity:1"
             id="path386" />
        </g>
        <g
           id="g388"
           transform="translate(110.826,192.9701)">
          <path
             d="M 0,0 C 0.189,-1.433 0.379,-2.865 0.569,-4.298"
             style="fill:none;stroke:#1c1c1b;stroke-width:1;stroke-linecap:round;stroke-linejoin:round;stroke-miterlimit:10;stroke-dasharray:none;stroke-opacity:1"
             id="path390" />
        </g>
        <path
           d="M 152.632,348.423 H 46.262 v 65.442 h 106.37 z"
           style="fill:#68cae0;fill-opacity:1;fill-rule:nonzero;stroke:none"
           id="path392" />
        <g
           id="g394"
           transform="translate(93.7376,387.1508)">
          <path
             d="m 0,0 v -12.102 c 0,-0.742 0.819,-1.191 1.445,-0.793 l 9.067,5.777 c 0.565,0.36 0.583,1.18 0.032,1.563 L 1.478,0.771 C 0.854,1.206 0,0.76 0,0"
             style="fill:#ffffff;fill-opacity:1;fill-rule:nonzero;stroke:none"
             id="path396" />
        </g>
        <g
           id="g398"
           transform="translate(52.6448,358.807)">
          <path
             d="M 0,0 H 95.201"
             style="fill:none;stroke:#1c1c1b;stroke-width:1;stroke-linecap:round;stroke-linejoin:miter;stroke-miterlimit:10;stroke-dasharray:none;stroke-opacity:1"
             id="path400" />
        </g>
        <g
           id="g402"
           transform="translate(63.8138,358.807)">
          <path
             d="m 0,0 c 0,-1.763 -1.429,-3.191 -3.191,-3.191 -1.763,0 -3.191,1.428 -3.191,3.191 0,1.762 1.428,3.19 3.191,3.19 C -1.429,3.19 0,1.762 0,0"
             style="fill:#1c1c1b;fill-opacity:1;fill-rule:nonzero;stroke:none"
             id="path404" />
        </g>
        <g
           id="g406"
           transform="translate(126.3187,413.7719)">
          <path
             d="m 0,0 h 26.578 c 0,-8.458 0.002,-16.918 -0.265,-25.372"
             style="fill:none;stroke:#000000;stroke-width:1;stroke-linecap:round;stroke-linejoin:miter;stroke-miterlimit:10;stroke-dasharray:none;stroke-opacity:1"
             id="path408" />
        </g>
        <g
           id="g410"
           transform="translate(46.2625,399.8178)">
          <path
             d="m 0,0 c 0.634,4.954 -1.366,8.954 0.634,13.954 h 20.42"
             style="fill:none;stroke:#000000;stroke-width:1;stroke-linecap:round;stroke-linejoin:miter;stroke-miterlimit:10;stroke-dasharray:none;stroke-opacity:1"
             id="path412" />
        </g>
        <g
           id="g414"
           transform="translate(45.8973,355.7016)">
          <path
             d="M 0,0 C 0.007,9.934 0.057,19.868 0.365,29.798"
             style="fill:none;stroke:#000000;stroke-width:1;stroke-linecap:round;stroke-linejoin:miter;stroke-miterlimit:10;stroke-dasharray:none;stroke-opacity:1"
             id="path416" />
        </g>
        <g
           id="g418"
           transform="translate(74.9803,348.7719)">
          <path
             d="M 0,0 H -20.082"
             style="fill:none;stroke:#000000;stroke-width:1;stroke-linecap:round;stroke-linejoin:miter;stroke-miterlimit:10;stroke-dasharray:none;stroke-opacity:1"
             id="path420" />
        </g>
        <g
           id="g422"
           transform="translate(152.6321,371.3061)">
          <path
             d="m 0,0 c 0.263,-7.509 0.265,-15.022 0.264,-22.534 h -35.97"
             style="fill:none;stroke:#000000;stroke-width:1;stroke-linecap:round;stroke-linejoin:miter;stroke-miterlimit:10;stroke-dasharray:none;stroke-opacity:1"
             id="path424" />
        </g>
        <g
           id="g426"
           transform="translate(188.6722,304.1576)">
          <path
             d="m 0,0 c 0,-12.447 -10.09,-22.537 -22.537,-22.537 -12.446,0 -22.536,10.09 -22.536,22.537 0,12.446 10.09,22.537 22.536,22.537 C -10.09,22.537 0,12.446 0,0"
             style="fill:#3364ac;fill-opacity:1;fill-rule:nonzero;stroke:none"
             id="path428" />
        </g>
        <g
           id="g430"
           transform="translate(165.5892,310.4037)">
          <path
             d="M 0,0 C -0.051,-1.435 -0.017,-2.885 -0.017,-4.438 H 5.582 C 5.342,-6.282 5.138,-7.989 4.865,-9.679 4.847,-9.85 4.421,-10.055 4.182,-10.071 2.833,-10.105 1.485,-10.088 0.017,-10.088 v -18.674 c -2.065,0.034 -4.046,0.359 -5.94,0.921 v 17.719 h -4.899 v 5.633 h 4.797 c 0.017,0.427 0.05,0.767 0.05,1.092 0.035,1.485 -0.017,2.97 0.12,4.438 0.307,3.226 2.287,5.496 5.48,5.939 1.979,0.274 4.044,0.052 6.127,0.052 V 1.911 c -0.734,0 -1.485,0.018 -2.219,0 C 2.885,1.895 2.202,1.929 1.57,1.774 0.666,1.57 0.034,0.955 0,0"
             style="fill:#ffffff;fill-opacity:1;fill-rule:nonzero;stroke:none"
             id="path432" />
        </g>
        <g
           id="g434"
           transform="translate(158.3987,325.3315)">
          <path
             d="M 0,0 C 14.468,5.301 30.275,-5.794 30.273,-21.174"
             style="fill:none;stroke:#000000;stroke-width:1;stroke-linecap:round;stroke-linejoin:miter;stroke-miterlimit:10;stroke-dasharray:none;stroke-opacity:1"
             id="path436" />
        </g>
        <g
           id="g438"
           transform="translate(145.2732,296.1537)">
          <path
             d="M 0,0 C -2.539,6.448 -2.014,13.787 1.608,19.722"
             style="fill:none;stroke:#000000;stroke-width:1;stroke-linecap:round;stroke-linejoin:miter;stroke-miterlimit:10;stroke-dasharray:none;stroke-opacity:1"
             id="path440" />
        </g>
        <g
           id="g442"
           transform="translate(166.1355,281.6205)">
          <path
             d="M 0,0 C -4.195,0.001 -8.327,1.204 -11.856,3.474"
             style="fill:none;stroke:#000000;stroke-width:1;stroke-linecap:round;stroke-linejoin:miter;stroke-miterlimit:10;stroke-dasharray:none;stroke-opacity:1"
             id="path444" />
        </g>
        <g
           id="g446"
           transform="translate(245.6507,265.7328)">
          <path
             d="m 0,0 c 0,-13.212 -10.71,-23.923 -23.922,-23.923 -13.212,0 -23.923,10.711 -23.923,23.923 0,13.212 10.711,23.922 23.923,23.922 C -10.71,23.922 0,13.212 0,0"
             style="fill:#e93808;fill-opacity:1;fill-rule:nonzero;stroke:none"
             id="path448" />
        </g>
        <g
           id="g450"
           transform="translate(233.4471,257.7904)">
          <path
             d="m 0,0 c -0.027,-2.454 -1.35,-3.813 -3.807,-3.83 -5.268,-0.033 -10.535,-0.033 -15.804,0 -2.467,0.014 -3.803,1.369 -3.816,3.813 -0.023,5.314 -0.023,10.629 0,15.944 0.01,2.433 1.372,3.833 3.803,3.849 5.268,0.036 10.536,0.036 15.804,0 C -1.382,19.76 -0.027,18.368 0,15.94 0.029,13.282 0.006,10.626 0.006,7.969 0.006,5.314 0.029,2.657 0,0 m 2.547,15.823 c -0.017,3.883 -2.441,6.394 -6.29,6.431 -5.325,0.054 -10.653,0.057 -15.977,0 -3.766,-0.04 -6.207,-2.534 -6.264,-6.294 -0.037,-2.657 -0.007,-5.317 -0.007,-7.975 0,-2.601 -0.016,-5.205 0.004,-7.805 0.033,-3.969 2.453,-6.507 6.383,-6.547 5.268,-0.057 10.54,-0.061 15.807,0 3.853,0.043 6.32,2.578 6.34,6.413 0.03,5.258 0.027,10.519 0.004,15.777"
             style="fill:#ffffff;fill-opacity:1;fill-rule:nonzero;stroke:none"
             id="path452" />
        </g>
        <g
           id="g454"
           transform="translate(221.6517,260.8002)">
          <path
             d="M 0,0 C -2.654,0.054 -4.862,2.274 -4.888,4.908 -4.915,7.626 -2.674,9.86 0.08,9.86 2.828,9.86 5.075,7.626 5.052,4.911 5.028,2.218 2.694,-0.053 0,0 m 0.094,12.421 c -4.063,0.01 -7.397,-3.29 -7.436,-7.373 -0.04,-4.129 3.157,-7.459 7.242,-7.538 4.186,-0.081 7.562,3.179 7.602,7.345 0.043,4.169 -3.27,7.555 -7.408,7.566"
             style="fill:#ffffff;fill-opacity:1;fill-rule:nonzero;stroke:none"
             id="path456" />
        </g>
        <g
           id="g458"
           transform="translate(231.4183,273.3979)">
          <path
             d="m 0,0 c -0.079,-1.046 -0.749,-1.592 -1.778,-1.542 -1.129,0.053 -1.705,0.746 -1.622,1.857 0.077,1.043 0.756,1.526 1.798,1.586 C -0.542,1.722 0.083,1.118 0,0"
             style="fill:#ffffff;fill-opacity:1;fill-rule:nonzero;stroke:none"
             id="path460" />
        </g>
        <g
           id="g462"
           transform="translate(234.2547,245.4623)">
          <path
             d="M 0,0 C -3.732,-2.381 -8.1,-3.653 -12.526,-3.652"
             style="fill:none;stroke:#000000;stroke-width:1;stroke-linecap:round;stroke-linejoin:miter;stroke-miterlimit:10;stroke-dasharray:none;stroke-opacity:1"
             id="path464" />
        </g>
        <g
           id="g466"
           transform="translate(243.2737,276.141)">
          <path
             d="M 0,0 C 2.978,-6.146 3.048,-13.328 0.361,-19.587"
             style="fill:none;stroke:#000000;stroke-width:1;stroke-linecap:round;stroke-linejoin:miter;stroke-miterlimit:10;stroke-dasharray:none;stroke-opacity:1"
             id="path468" />
        </g>
        <g
           id="g470"
           transform="translate(222.4476,289.6107)">
          <path
             d="M 0,0 C 2.763,-0.06 5.515,-0.609 8.084,-1.628"
             style="fill:none;stroke:#000000;stroke-width:1;stroke-linecap:round;stroke-linejoin:miter;stroke-miterlimit:10;stroke-dasharray:none;stroke-opacity:1"
             id="path472" />
        </g>
        <g
           id="g474"
           transform="translate(197.806,265.7328)">
          <path
             d="M 0,0 C 0.001,4.53 1.341,8.996 3.821,12.785"
             style="fill:none;stroke:#000000;stroke-width:1;stroke-linecap:round;stroke-linejoin:miter;stroke-miterlimit:10;stroke-dasharray:none;stroke-opacity:1"
             id="path476" />
        </g>
        <g
           id="g478"
           transform="translate(145.7806,250.2719)">
          <path
             d="m 0,0 c 0,-13.256 -10.746,-24.001 -24.001,-24.001 -13.256,0 -24.002,10.745 -24.002,24.001 0,13.256 10.746,24.002 24.002,24.002 C -10.746,24.002 0,13.256 0,0"
             style="fill:#000000;fill-opacity:1;fill-rule:nonzero;stroke:none"
             id="path480" />
        </g>
        <g
           id="g482"
           transform="translate(134.2425,253.0375)">
          <path
             d="m 0,0 c -0.246,-0.023 -0.492,-0.036 -0.739,-0.037 -2.705,0 -5.228,1.363 -6.711,3.627 V -8.761 c 0,-5.041 -4.086,-9.128 -9.127,-9.128 -5.042,0 -9.128,4.087 -9.128,9.128 0,5.042 4.086,9.128 9.128,9.128 0.19,0 0.376,-0.016 0.564,-0.028 v -4.498 c -0.188,0.022 -0.372,0.056 -0.564,0.056 -2.573,0 -4.659,-2.085 -4.659,-4.659 0,-2.572 2.086,-4.658 4.659,-4.658 2.573,0 4.846,2.027 4.846,4.601 l 0.044,20.974 h 4.304 C -6.977,8.297 -3.866,5.282 0.004,4.999 V 0"
             style="fill:#ffffff;fill-opacity:1;fill-rule:nonzero;stroke:none"
             id="path484" />
        </g>
        <g
           id="g486"
           transform="translate(112.7449,272.516)">
          <path
             d="M 0,0 C 2.866,1.158 5.942,1.757 9.034,1.758"
             style="fill:none;stroke:#000000;stroke-width:1;stroke-linecap:round;stroke-linejoin:miter;stroke-miterlimit:10;stroke-dasharray:none;stroke-opacity:1"
             id="path488" />
        </g>
        <g
           id="g490"
           transform="translate(102.9515,235.4232)">
          <path
             d="M 0,0 C -5.929,7.423 -6.791,18.048 -2.23,26.375"
             style="fill:none;stroke:#000000;stroke-width:1;stroke-linecap:round;stroke-linejoin:miter;stroke-miterlimit:10;stroke-dasharray:none;stroke-opacity:1"
             id="path492" />
        </g>
        <g
           id="g494"
           transform="translate(135.7854,230.8666)">
          <path
             d="M 0,0 C -2.497,-1.839 -5.345,-3.189 -8.359,-3.926"
             style="fill:none;stroke:#000000;stroke-width:1;stroke-linecap:round;stroke-linejoin:miter;stroke-miterlimit:10;stroke-dasharray:none;stroke-opacity:1"
             id="path496" />
        </g>
        <g
           id="g498"
           transform="translate(145.7806,250.2719)">
          <path
             d="M 0,0 C -0.006,-4.025 -1.09,-8.02 -3.056,-11.529"
             style="fill:none;stroke:#000000;stroke-width:1;stroke-linecap:round;stroke-linejoin:miter;stroke-miterlimit:10;stroke-dasharray:none;stroke-opacity:1"
             id="path500" />
        </g>
        <g
           id="g502"
           transform="translate(216.2449,205.6322)">
          <path
             d="m 0,0 c 0,-14.761 -11.965,-26.727 -26.726,-26.727 -14.76,0 -26.725,11.966 -26.725,26.727 0,14.76 11.965,26.726 26.725,26.726 C -11.965,26.726 0,14.76 0,0"
             style="fill:#3364ac;fill-opacity:1;fill-rule:nonzero;stroke:none"
             id="path504" />
        </g>
        <g
           id="g506"
           transform="translate(174.9261,193.0892)">
          <path
             d="M 0,0 C 3.555,-0.067 6.747,0.797 9.628,2.968 5.646,4.177 4.058,5.394 3.479,7.658 4.372,7.702 5.261,7.745 6.15,7.789 3.007,8.996 1.16,11.108 0.918,14.558 1.882,14.303 2.775,14.066 3.668,13.83 0.784,17.458 0.2,20.272 1.923,22.899 c 3.727,-4.255 8.364,-6.671 14.124,-7.064 -0.026,0.45 -0.051,0.788 -0.064,1.127 -0.114,2.975 1.134,5.222 3.784,6.532 2.642,1.307 5.212,0.956 7.504,-0.905 0.51,-0.414 0.936,-0.527 1.515,-0.311 1.072,0.404 2.151,0.791 3.333,1.225 -0.493,-1.432 -1.419,-2.497 -2.621,-3.362 0.024,-0.065 0.05,-0.129 0.075,-0.195 1.1,0.283 2.201,0.566 3.302,0.848 0.044,-0.044 0.088,-0.087 0.132,-0.131 C 32.154,19.804 31.336,18.904 30.434,18.102 29.959,17.68 29.713,17.304 29.715,16.63 29.745,6.548 22.137,-1.84 12.128,-2.739 8.088,-3.102 4.238,-2.374 0.66,-0.398 0.435,-0.275 0.22,-0.134 0,0"
             style="fill:#ffffff;fill-opacity:1;fill-rule:nonzero;stroke:none"
             id="path508" />
        </g>
        <g
           id="g510"
           transform="translate(176.4285,228.9369)">
          <path
             d="M 0,0 C 3.983,2.242 8.521,3.421 13.091,3.421"
             style="fill:none;stroke:#000000;stroke-width:1;stroke-linecap:round;stroke-linejoin:miter;stroke-miterlimit:10;stroke-dasharray:none;stroke-opacity:1"
             id="path512" />
        </g>
        <g
           id="g514"
           transform="translate(163.6468,198.9213)">
          <path
             d="M 0,0 C -1.468,5.719 -1.014,11.906 1.338,17.326"
             style="fill:none;stroke:#000000;stroke-width:1;stroke-linecap:round;stroke-linejoin:miter;stroke-miterlimit:10;stroke-dasharray:none;stroke-opacity:1"
             id="path516" />
        </g>
        <g
           id="g518"
           transform="translate(192.4764,179.2767)">
          <path
             d="M 0,0 C -5.742,-0.72 -11.592,0.493 -16.574,3.44"
             style="fill:none;stroke:#000000;stroke-width:1;stroke-linecap:round;stroke-linejoin:miter;stroke-miterlimit:10;stroke-dasharray:none;stroke-opacity:1"
             id="path520" />
        </g>
        <g
           id="g522"
           transform="translate(216.2449,205.6322)">
          <path
             d="M 0,0 C -0.005,-6.225 -2.252,-12.266 -6.312,-16.982"
             style="fill:none;stroke:#000000;stroke-width:1;stroke-linecap:round;stroke-linejoin:miter;stroke-miterlimit:10;stroke-dasharray:none;stroke-opacity:1"
             id="path524" />
        </g>
        <path
           d="m 265.65,334.385 h -73.158 v 46.044 h 73.158 z"
           style="fill:#ffcc00;fill-opacity:1;fill-rule:nonzero;stroke:none"
           id="path526" />
        <g
           id="g528"
           transform="translate(265.6497,380.4291)">
          <path
             d="M 0,0 C 0,0 -33.911,-20.844 -36.579,-23.021 L -73.158,0"
             style="fill:none;stroke:#000000;stroke-width:1;stroke-linecap:round;stroke-linejoin:miter;stroke-miterlimit:10;stroke-dasharray:none;stroke-opacity:1"
             id="path530" />
        </g>
        <g
           id="g532"
           transform="translate(265.6497,370.5004)">
          <path
             d="M 0,0 V -14.482"
             style="fill:none;stroke:#000000;stroke-width:1;stroke-linecap:round;stroke-linejoin:miter;stroke-miterlimit:10;stroke-dasharray:none;stroke-opacity:1"
             id="path534" />
        </g>
        <g
           id="g536"
           transform="translate(211.0628,380.9467)">
          <path
             d="M 0,0 C 12.288,0.05 24.567,-1.163 36.854,-0.518"
             style="fill:none;stroke:#000000;stroke-width:1;stroke-linecap:round;stroke-linejoin:miter;stroke-miterlimit:10;stroke-dasharray:none;stroke-opacity:1"
             id="path538" />
        </g>
        <g
           id="g540"
           transform="translate(192.2405,334.6596)">
          <path
             d="M 0,0 V 11.118"
             style="fill:none;stroke:#000000;stroke-width:1;stroke-linecap:round;stroke-linejoin:miter;stroke-miterlimit:10;stroke-dasharray:none;stroke-opacity:1"
             id="path542" />
        </g>
        <g
           id="g544"
           transform="translate(265.6497,334.3852)">
          <path
             d="M 0,0 C -8.554,-0.416 -17.11,-0.027 -25.665,0.133"
             style="fill:none;stroke:#000000;stroke-width:1;stroke-linecap:round;stroke-linejoin:miter;stroke-miterlimit:10;stroke-dasharray:none;stroke-opacity:1"
             id="path546" />
        </g>
        <g
           id="g548"
           transform="translate(90.5145,299.64)">
          <path
             d="m 0,0 c 0,-16.173 -13.111,-29.283 -29.283,-29.283 -16.173,0 -29.284,13.11 -29.284,29.283 0,16.173 13.111,29.283 29.284,29.283 C -13.111,29.283 0,16.173 0,0"
             style="fill:#ffcc00;fill-opacity:1;fill-rule:nonzero;stroke:none"
             id="path550" />
        </g>
        <g
           id="g552"
           transform="translate(61.2313,328.9232)">
          <path
             d="m 0,0 c 12.276,0 22.228,-13.11 22.228,-29.283 0,-16.173 -9.952,-29.283 -22.228,-29.283 -12.276,0 -22.228,13.11 -22.228,29.283 C -22.228,-13.11 -12.276,0 0,0 Z"
             style="fill:none;stroke:#000000;stroke-width:1;stroke-linecap:round;stroke-linejoin:miter;stroke-miterlimit:10;stroke-dasharray:none;stroke-opacity:1"
             id="path554" />
        </g>
        <g
           id="g556"
           transform="translate(61.2313,328.9232)">
          <path
             d="m 0,0 c 4.522,0 8.188,-13.11 8.188,-29.283 0,-16.173 -3.666,-29.283 -8.188,-29.283 -4.522,0 -8.188,13.11 -8.188,29.283 C -8.188,-13.11 -4.522,0 0,0 Z"
             style="fill:none;stroke:#000000;stroke-width:1;stroke-linecap:round;stroke-linejoin:miter;stroke-miterlimit:10;stroke-dasharray:none;stroke-opacity:1"
             id="path558" />
        </g>
      </g>
    </g>
    <g
       id="g560">
      <g
         id="g562"
         clip-path="url(#clipPath566)">
        <g
           id="g568"
           transform="translate(90.5145,266.0414)">
          <path
             d="m 0,0 c 0,-11.294 -13.111,-20.449 -29.283,-20.449 -16.173,0 -29.284,9.155 -29.284,20.449 0,11.294 13.111,20.449 29.284,20.449 C -13.111,20.449 0,11.294 0,0 Z"
             style="fill:none;stroke:#000000;stroke-width:1;stroke-linecap:round;stroke-linejoin:miter;stroke-miterlimit:10;stroke-dasharray:none;stroke-opacity:1"
             id="path570" />
        </g>
        <g
           id="g572"
           transform="translate(90.5145,332.5092)">
          <path
             d="m 0,0 c 0,-11.294 -13.111,-20.449 -29.283,-20.449 -16.173,0 -29.284,9.155 -29.284,20.449 0,11.294 13.111,20.449 29.284,20.449 C -13.111,20.449 0,11.294 0,0 Z"
             style="fill:none;stroke:#000000;stroke-width:1;stroke-linecap:round;stroke-linejoin:miter;stroke-miterlimit:10;stroke-dasharray:none;stroke-opacity:1"
             id="path574" />
        </g>
        <g
           id="g576"
           transform="translate(27.6229,297.9643)">
          <path
             d="M 0,0 H 65.872"
             style="fill:none;stroke:#000000;stroke-width:1;stroke-linecap:round;stroke-linejoin:miter;stroke-miterlimit:10;stroke-dasharray:none;stroke-opacity:1"
             id="path578" />
        </g>
      </g>
    </g>
    <g
       id="g580">
      <g
         id="g582"
         clip-path="url(#clipPath586)">
        <g
           id="g588"
           transform="translate(41.5867,277.9232)">
          <path
             d="M 0,0 C -6.098,5.524 -9.636,13.487 -9.639,21.717"
             style="fill:none;stroke:#000000;stroke-width:1;stroke-linecap:round;stroke-linejoin:miter;stroke-miterlimit:10;stroke-dasharray:none;stroke-opacity:1"
             id="path590" />
        </g>
        <g
           id="g592"
           transform="translate(53.5882,271.3793)">
          <path
             d="M 0,0 C -1.757,0.468 -3.471,1.101 -5.108,1.892"
             style="fill:none;stroke:#000000;stroke-width:1;stroke-linecap:round;stroke-linejoin:miter;stroke-miterlimit:10;stroke-dasharray:none;stroke-opacity:1"
             id="path594" />
        </g>
        <g
           id="g596"
           transform="translate(80.3045,277.4711)">
          <path
             d="M 0,0 C -4.419,-3.854 -10.022,-6.236 -15.84,-6.89"
             style="fill:none;stroke:#000000;stroke-width:1;stroke-linecap:round;stroke-linejoin:miter;stroke-miterlimit:10;stroke-dasharray:none;stroke-opacity:1"
             id="path598" />
        </g>
        <g
           id="g600"
           transform="translate(78.3694,323.1772)">
          <path
             d="M 0,0 C 10.457,-7.859 14.919,-22.146 9.979,-34.39"
             style="fill:none;stroke:#000000;stroke-width:1;stroke-linecap:round;stroke-linejoin:miter;stroke-miterlimit:10;stroke-dasharray:none;stroke-opacity:1"
             id="path602" />
        </g>
        <g
           id="g604"
           transform="translate(302.4271,299.4242)">
          <path
             d="m 0,0 c 0,-12.236 -9.919,-22.156 -22.156,-22.156 -12.236,0 -22.156,9.92 -22.156,22.156 0,12.236 9.92,22.155 22.156,22.155 C -9.919,22.155 0,12.236 0,0"
             style="fill:#2bb3d1;fill-opacity:1;fill-rule:nonzero;stroke:none"
             id="path606" />
        </g>
        <g
           id="g608"
           transform="translate(271.5892,311.0385)">
          <path
             d="m 0,0 c 0.031,-0.01 0.062,-0.025 0.093,-0.027 0.679,-0.052 1.266,-0.311 1.75,-0.791 0.432,-0.43 0.702,-0.949 0.79,-1.553 C 2.783,-3.396 2.466,-4.259 1.694,-4.947 1.318,-5.282 0.87,-5.481 0.374,-5.575 0.118,-5.623 -0.142,-5.633 -0.397,-5.609 c -1.183,0.108 -2.117,0.934 -2.418,1.982 -0.055,0.191 -0.093,0.385 -0.102,0.584 -0.002,0.038 0.006,0.084 -0.045,0.101 V -2.7 c 0.048,0.018 0.042,0.062 0.045,0.101 0.009,0.08 0.012,0.161 0.025,0.241 0.089,0.546 0.312,1.032 0.688,1.44 0.503,0.546 1.129,0.838 1.869,0.891 0.031,0.002 0.062,0.018 0.093,0.027 z"
             style="fill:#ffffff;fill-opacity:1;fill-rule:nonzero;stroke:none"
             id="path610" />
        </g>
        <g
           id="g612"
           transform="translate(281.5491,301.2709)">
          <path
             d="m 0,0 c 0.023,0.031 0.048,0.062 0.07,0.094 0.238,0.347 0.505,0.67 0.815,0.956 0.649,0.597 1.401,1.001 2.257,1.211 0.412,0.1 0.831,0.145 1.254,0.17 C 4.682,2.447 4.967,2.442 5.251,2.421 6.078,2.358 6.881,2.199 7.63,1.83 8.4,1.45 8.986,0.875 9.412,0.132 c 0.269,-0.47 0.448,-0.975 0.591,-1.493 0.098,-0.358 0.169,-0.719 0.217,-1.085 0.025,-0.183 0.035,-0.367 0.047,-0.551 0.021,-0.342 0.038,-0.684 0.057,-1.025 0,-0.01 10e-4,-0.021 10e-4,-0.031 0.009,-0.325 0.023,-0.65 0.025,-0.976 0.007,-1.092 0.013,-2.183 0.015,-3.275 0.003,-1.649 10e-4,-3.299 10e-4,-4.948 0,-0.184 -0.008,-0.191 -0.195,-0.192 -0.698,0 -1.397,0.001 -2.095,0 -0.652,0 -1.304,-10e-4 -1.955,-0.003 -0.104,0 -0.208,-0.009 -0.312,-0.014 -0.017,-10e-4 -0.034,-10e-4 -0.051,0 -0.231,0.012 -0.234,0.065 -0.234,0.238 0.002,1.368 0.003,2.735 0.003,4.102 -0.001,1.357 0,2.715 -0.006,4.071 -0.001,0.515 -0.047,1.026 -0.198,1.522 -0.089,0.29 -0.201,0.57 -0.373,0.822 -0.298,0.438 -0.713,0.702 -1.228,0.812 -0.19,0.041 -0.383,0.066 -0.578,0.062 C 2.936,-1.837 2.726,-1.83 2.521,-1.855 1.608,-1.968 0.933,-2.417 0.557,-3.274 0.396,-3.643 0.302,-4.029 0.247,-4.428 0.187,-4.851 0.168,-5.275 0.168,-5.702 v -7.457 c 0,-0.058 0.003,-0.114 -0.002,-0.172 -0.007,-0.076 -0.04,-0.107 -0.116,-0.111 -0.044,-0.003 -0.088,-0.002 -0.131,-0.002 -0.793,0 -1.586,0.001 -2.378,0 -0.501,0 -1.001,0 -1.502,-0.003 -0.147,-0.001 -0.295,-0.009 -0.442,-0.014 -0.02,-10e-4 -0.041,-0.002 -0.061,0 -0.195,0.021 -0.211,0.07 -0.209,0.216 0.001,0.073 0.001,0.147 0.001,0.221 l 10e-4,9.826 c 0,1.652 -10e-4,3.304 -10e-4,4.958 0,0.044 -0.001,0.087 10e-4,0.131 0.005,0.109 0.044,0.148 0.155,0.155 0.027,0.002 0.054,0.002 0.08,0.002 h 4.172 c 0.027,0 0.054,0 0.081,-0.002 0.106,-0.006 0.147,-0.041 0.148,-0.15 0.001,-0.187 -0.008,-0.375 -0.008,-0.563 0,-0.275 0.003,-0.55 0.005,-0.825 0.001,-0.132 0.003,-0.263 0.004,-0.394 0.001,-0.035 0.003,-0.07 0.005,-0.106 C -0.02,0.006 -0.01,0.003 0,0"
             style="fill:#ffffff;fill-opacity:1;fill-rule:nonzero;stroke:none"
             id="path614" />
        </g>
        <g
           id="g616"
           transform="translate(269.0394,295.5795)">
          <path
             d="m 0,0 c 0,2.506 0,5.012 0,7.518 0,0.044 0,0.087 0.006,0.13 0.008,0.052 0.037,0.086 0.095,0.086 0.036,0 0.073,0.003 0.11,0.003 1.468,0.001 2.936,0.001 4.403,0.002 0.011,0 0.021,0 0.031,-10e-4 C 4.814,7.736 4.857,7.694 4.857,7.521 4.858,6.953 4.858,6.386 4.858,5.818 c 0,-4.434 0,-8.868 -10e-4,-13.302 0,-0.053 -0.002,-0.108 -0.011,-0.16 C 4.836,-7.706 4.798,-7.749 4.732,-7.753 4.619,-7.759 4.505,-7.762 4.392,-7.764 4.348,-7.765 4.305,-7.756 4.261,-7.756 c -1.233,0.001 -2.465,0.001 -3.698,0 -0.097,0 -0.194,-0.009 -0.292,-0.014 -0.02,-0.001 -0.04,-0.001 -0.06,0 -0.163,0.019 -0.212,0.038 -0.212,0.222 C 0,-5.031 0,-2.516 0,0 Z"
             style="fill:#ffffff;fill-opacity:1;fill-rule:nonzero;stroke:none"
             id="path618" />
        </g>
        <g
           id="g620"
           transform="translate(289.2669,319.6391)">
          <path
             d="M 0,0 C -7.101,3.244 -15.685,2.3 -21.994,-2.277"
             style="fill:none;stroke:#000000;stroke-width:1;stroke-linecap:round;stroke-linejoin:miter;stroke-miterlimit:10;stroke-dasharray:none;stroke-opacity:1"
             id="path622" />
        </g>
        <g
           id="g624"
           transform="translate(299.8763,289.0932)">
          <path
             d="M 0,0 C 2.378,4.519 3.065,9.764 1.98,14.75"
             style="fill:none;stroke:#000000;stroke-width:1;stroke-linecap:round;stroke-linejoin:miter;stroke-miterlimit:10;stroke-dasharray:none;stroke-opacity:1"
             id="path626" />
        </g>
        <g
           id="g628"
           transform="translate(275.4886,277.7875)">
          <path
             d="M 0,0 C 5.077,-1.121 10.512,-0.395 15.113,2.031"
             style="fill:none;stroke:#000000;stroke-width:1;stroke-linecap:round;stroke-linejoin:miter;stroke-miterlimit:10;stroke-dasharray:none;stroke-opacity:1"
             id="path630" />
        </g>
        <g
           id="g632"
           transform="translate(260.8685,289.1762)">
          <path
             d="M 0,0 C 1.245,-2.408 2.919,-4.585 4.933,-6.399"
             style="fill:none;stroke:#000000;stroke-width:1;stroke-linecap:round;stroke-linejoin:miter;stroke-miterlimit:10;stroke-dasharray:none;stroke-opacity:1"
             id="path634" />
        </g>
        <g
           id="g636"
           transform="translate(262.326,312.4115)">
          <path
             d="M 0,0 C -2.544,-3.526 -3.927,-7.804 -4.025,-12.145"
             style="fill:none;stroke:#000000;stroke-width:1;stroke-linecap:round;stroke-linejoin:miter;stroke-miterlimit:10;stroke-dasharray:none;stroke-opacity:1"
             id="path638" />
        </g>
        <g
           id="g640"
           transform="translate(431.5692,267.7338)">
          <path
             d="M 0,0 -12.941,-17.626"
             style="fill:none;stroke:#000000;stroke-width:1;stroke-linecap:round;stroke-linejoin:miter;stroke-miterlimit:10;stroke-dasharray:none;stroke-opacity:1"
             id="path642" />
        </g>
        <g
           id="g644"
           transform="translate(219.9739,168.9564)">
          <path
             d="M 0,0 -12.166,-13.491"
             style="fill:none;stroke:#000000;stroke-width:1;stroke-linecap:round;stroke-linejoin:miter;stroke-miterlimit:10;stroke-dasharray:none;stroke-opacity:1"
             id="path646" />
        </g>
        <g
           id="g648"
           transform="translate(221.5799,164.4467)">
          <path
             d="M 0,0 -7.063,-7.465"
             style="fill:none;stroke:#000000;stroke-width:1;stroke-linecap:round;stroke-linejoin:miter;stroke-miterlimit:10;stroke-dasharray:none;stroke-opacity:1"
             id="path650" />
        </g>
        <g
           id="g652"
           transform="translate(420.283,246.2514)">
          <path
             d="M 0,0 4.949,6.707"
             style="fill:none;stroke:#000000;stroke-width:1;stroke-linecap:round;stroke-linejoin:miter;stroke-miterlimit:10;stroke-dasharray:none;stroke-opacity:1"
             id="path654" />
        </g>
        <g
           id="g656"
           transform="translate(48.888,134.1654)">
          <path
             d="M 0,0 4.949,6.707"
             style="fill:none;stroke:#000000;stroke-width:1;stroke-linecap:round;stroke-linejoin:miter;stroke-miterlimit:10;stroke-dasharray:none;stroke-opacity:1"
             id="path658" />
        </g>
        <g
           id="g660"
           transform="translate(50.4417,130.2807)">
          <path
             d="M 0,0 4.245,5.994"
             style="fill:none;stroke:#000000;stroke-width:1;stroke-linecap:round;stroke-linejoin:miter;stroke-miterlimit:10;stroke-dasharray:none;stroke-opacity:1"
             id="path662" />
        </g>
        <g
           id="g664"
           transform="translate(300.3694,355.8051)">
          <path
             d="M 0,0 4.949,6.707"
             style="fill:none;stroke:#000000;stroke-width:1;stroke-linecap:round;stroke-linejoin:miter;stroke-miterlimit:10;stroke-dasharray:none;stroke-opacity:1"
             id="path666" />
        </g>
        <g
           id="g668"
           transform="translate(304.2542,355.0277)">
          <path
             d="M 0,0 7.338,10.605"
             style="fill:none;stroke:#000000;stroke-width:1;stroke-linecap:round;stroke-linejoin:miter;stroke-miterlimit:10;stroke-dasharray:none;stroke-opacity:1"
             id="path670" />
        </g>
        <g
           id="g672"
           transform="translate(250.4993,165.9252)">
          <path
             d="M 0,0 C 0,3.145 2.549,5.693 5.693,5.693 8.838,5.693 11.387,3.145 11.387,0"
             style="fill:none;stroke:#000000;stroke-width:1;stroke-linecap:round;stroke-linejoin:miter;stroke-miterlimit:10;stroke-dasharray:none;stroke-opacity:1"
             id="path674" />
        </g>
        <g
           id="g676"
           transform="translate(309.1038,242.0687)">
          <path
             d="M 0,0 C -0.994,-1.206 -2.777,-1.378 -3.983,-0.384 -5.189,0.61 -5.361,2.394 -4.367,3.6 -3.374,4.806 -1.59,4.978 -0.384,3.983 0.822,2.989 0.994,1.206 0,0 Z"
             style="fill:none;stroke:#000000;stroke-width:1;stroke-linecap:round;stroke-linejoin:miter;stroke-miterlimit:10;stroke-dasharray:none;stroke-opacity:1"
             id="path678" />
        </g>
        <g
           id="g680"
           transform="translate(182.4739,120.9516)">
          <path
             d="M 0,0 C -0.951,-1.154 -2.657,-1.318 -3.811,-0.367 -4.965,0.584 -5.13,2.29 -4.179,3.444 -3.228,4.598 -1.521,4.763 -0.367,3.812 0.787,2.86 0.951,1.154 0,0 Z"
             style="fill:none;stroke:#000000;stroke-width:1;stroke-linecap:round;stroke-linejoin:miter;stroke-miterlimit:10;stroke-dasharray:none;stroke-opacity:1"
             id="path682" />
        </g>
        <g
           id="g684"
           transform="translate(185.3592,414.2709)">
          <path
             d="M 0,0 C -1.017,-1.174 -2.792,-1.301 -3.966,-0.284 -5.14,0.732 -5.268,2.508 -4.251,3.682 -3.235,4.855 -1.459,4.983 -0.285,3.967 0.889,2.95 1.017,1.174 0,0 Z"
             style="fill:none;stroke:#000000;stroke-width:1;stroke-linecap:butt;stroke-linejoin:miter;stroke-miterlimit:10;stroke-dasharray:none;stroke-opacity:1"
             id="path686" />
        </g>
        <g
           id="g688"
           transform="translate(55.0325,232.7455)">
          <path
             d="m 0,0 c 0,-1.278 -1.037,-2.315 -2.315,-2.315 -1.279,0 -2.315,1.037 -2.315,2.315 0,1.278 1.036,2.315 2.315,2.315 C -1.037,2.315 0,1.278 0,0 Z"
             style="fill:none;stroke:#000000;stroke-width:1;stroke-linecap:round;stroke-linejoin:miter;stroke-miterlimit:10;stroke-dasharray:none;stroke-opacity:1"
             id="path690" />
        </g>
        <g
           id="g692"
           transform="translate(417.4676,203.2689)">
          <path
             d="M 0,0 C 3.031,0 5.488,-2.457 5.488,-5.487 5.488,-8.519 3.031,-10.976 0,-10.976"
             style="fill:none;stroke:#000000;stroke-width:1;stroke-linecap:round;stroke-linejoin:miter;stroke-miterlimit:10;stroke-dasharray:none;stroke-opacity:1"
             id="path694" />
        </g>
        <g
           id="g696"
           transform="translate(111.5726,304.8979)">
          <path
             d="M 0,0 15.563,15.948"
             style="fill:none;stroke:#7e7e1e;stroke-width:1;stroke-linecap:round;stroke-linejoin:miter;stroke-miterlimit:10;stroke-dasharray:none;stroke-opacity:1"
             id="path698" />
        </g>
        <g
           id="g700"
           transform="translate(113.2181,312.2289)">
          <path
             d="M 0,0 7.975,7.975"
             style="fill:none;stroke:#7e7e1e;stroke-width:1;stroke-linecap:round;stroke-linejoin:miter;stroke-miterlimit:10;stroke-dasharray:none;stroke-opacity:1"
             id="path702" />
        </g>
        <g
           id="g704"
           transform="translate(181.8846,109.5824)">
          <path
             d="m 0,0 c 0.447,0.446 0.931,0.88 1.444,1.303 2.577,2.124 5.559,3.837 7.862,6.216 1.923,1.985 3.321,4.405 4.04,6.989 0.689,2.476 0.926,5.361 3.094,6.942 1.565,1.141 3.852,1.231 5.651,0.439 C 27,19.728 26.889,12.826 25.077,8.786 24.109,6.63 22.462,4.799 21.292,2.731 17.692,-3.624 16.381,-13.828 6.579,-14.817 2.392,-15.24 -1.271,-13.343 -2.666,-9.602 -4.074,-5.82 -2.701,-2.693 0,0 Z"
             style="fill:none;stroke:#000000;stroke-width:1;stroke-linecap:round;stroke-linejoin:miter;stroke-miterlimit:10;stroke-dasharray:none;stroke-opacity:1"
             id="path706" />
        </g>
        <g
           id="g712"
           transform="translate(252.3846,213.5023)" />
      </g>
    </g>
  </g>
</svg>
