<?xml version="1.0" encoding="UTF-8" standalone="no"?>
<svg
   data-name="Layer 1"
   width="902.41854"
   height="826.20679"
   viewBox="0 0 902.41854 826.20679"
   version="1.1"
   id="svg33"
   sodipodi:docname="rocket.svg"
   inkscape:version="1.3 (0e150ed6c4, 2023-07-21)"
   xmlns:inkscape="http://www.inkscape.org/namespaces/inkscape"
   xmlns:sodipodi="http://sodipodi.sourceforge.net/DTD/sodipodi-0.dtd"
   xmlns="http://www.w3.org/2000/svg"
   xmlns:svg="http://www.w3.org/2000/svg">
  <defs
     id="defs33" />
  <sodipodi:namedview
     id="namedview33"
     pagecolor="#ffffff"
     bordercolor="#000000"
     borderopacity="0.25"
     inkscape:showpageshadow="2"
     inkscape:pageopacity="0.0"
     inkscape:pagecheckerboard="0"
     inkscape:deskcolor="#d1d1d1"
     inkscape:zoom="0.42877946"
     inkscape:cx="423.29453"
     inkscape:cy="288.02686"
     inkscape:window-width="1366"
     inkscape:window-height="697"
     inkscape:window-x="-8"
     inkscape:window-y="-8"
     inkscape:window-maximized="1"
     inkscape:current-layer="svg33" />
  <path
     d="m 324.25974,659.81106 -8.67165,19.44392 c 7.04887,-1.12221 13.60391,4.89778 13.75121,12.62878 0.1473,7.731 -6.13979,15.77421 -13.18911,16.8731 1.34708,6.00231 7.16088,8.64855 12.20732,11.07451 5.04644,2.42596 10.48544,6.44956 10.11,12.84517 -0.30146,5.13535 -4.548,9.66922 -9.05769,11.49215 -4.50969,1.82293 -9.24135,1.54272 -13.80858,1.23684 6.921,7.23984 7.59561,20.84776 1.51747,30.61081 -6.07814,9.76305 -18.21665,14.56912 -27.30539,10.8112 6.42186,7.98853 5.02668,22.61792 -2.94328,30.86218 -8.03432,8.31083 -19.678,9.11525 -29.85706,8.23972 a 132.23791,132.23791 0 0 1 -71.00684,-28.14 c -7.78173,-6.1834 -15.05042,-13.45556 -19.48953,-22.94127 -4.43911,-9.48571 -5.747,-21.49572 -1.61222,-32.29045 -1.1152,13.52239 -14.64995,24.20276 -26.82589,24.80038 -12.17594,0.59762 -22.80664,-6.26052 -31.84054,-14.08111 -12.013998,-10.40049 -23.137358,-24.9791 -21.488408,-42.967 0.81631,-8.90487 4.70578,-17.46936 8.52054,-25.765 l 7.395648,-16.08273 c 2.98571,-6.49278 6.03914,-13.09517 10.53293,-18.54375 4.49379,-5.44858 10.73125,-9.66651 16.97307,-9.62643 -1.42718,-6.5202 -2.86077,-13.28339 -1.66478,-20.211 1.19599,-6.92761 5.77577,-14.10054 12.00424,-15.72285 7.92682,-2.06468 14.6448,5.25038 22.6158,4.56081 7.67069,-0.6636 14.01,-8.362 21.45871,-11.4124 a 17.17785,17.17785 0 0 1 18.53718,3.20639 c 4.722,4.6097 6.69032,12.39794 4.99586,19.76719 -1.48435,6.45545 -5.43465,12.14909 -7.83232,18.37489 -2.39767,6.2258 -2.76983,14.231 1.8351,17.63129 5.55664,4.103 14.01442,-1.48021 18.35566,-8.23484 4.34124,-6.75463 6.83379,-14.93336 12.32361,-20.614 6.47924,-6.70451 16.62148,-8.27573 23.29257,-3.60845 6.67109,4.66728 9.22234,15.11922 5.85919,24.00383 -2.74987,7.26449 -9.04909,14.6135 -6.86437,21.45428 2.309,7.2298 12.41262,6.31432 18.50707,1.20471 6.09445,-5.10961 10.14111,-12.8059 16.16143,-18.03027 6.114,-5.30562 14.09812,-7.63035 21.10721,-6.14573 a 21.73057,21.73057 0 0 1 15.57311,13.9151"
     fill="#e6e6e6"
     id="path1"
     style="fill:#008080" />
  <path
     d="m 183.86259,605.16972 17.99256,8.35958 a 13.81228,13.81228 0 0 0 8.73392,1.17747 c 2.61209,-0.61776 4.37716,-2.21477 4.84109,-4.3833 l 4.18659,-19.55422 c 0.7905,-3.68869 -2.26453,-8.05314 -7.26376,-10.37585 l -9.93652,-4.61663 c -4.99924,-2.32271 -10.305,-1.8428 -12.61429,1.14024 l -12.24431,15.81049 c -1.35812,1.75309 -1.4403,4.132 -0.22783,6.52669 a 13.81219,13.81219 0 0 0 6.53255,5.91553 z"
     fill="#3f3d56"
     id="path2" />
  <path
     d="M 741.77902,243.7622 A 353.9984,353.9984 0 0 0 664.27734,119.70539 C 635.27098,89.59369 590.12707,90.84488 590.12707,90.84488 l -0.25785,-0.32 A 87.58018,87.58018 0 0 0 497.3165,61.61239 c -4.30426,1.23514 -7.615,1.78263 -9.18943,1.23249 C 459.41995,52.7978 460.76873,30.12066 436.00091,11.8521 c -43.367,-31.98718 -187.21094,4.6535 -207.4942,63.51371 -16.43915,47.70488 -89.82021,70.827 -117.23582,107.31737 q -6.43059,8.55861 -12.617998,17.31558 -2.90129,4.06824 -5.73748,8.19783 a 730.4283,730.4283 0 0 0 -52.14714,88.15542 514.11313,514.11313 0 0 0 -26.10088,61.68445 c -28.591,83.58209 -18.8137995,145.8549 60.021,130.47014 q 13.99815,-2.739 27.323778,-4.90113 19.2962,-3.14892 37.24641,-5.17566 24.17227,-2.74893 45.99366,-3.60217 7.33723,-0.29524 14.40509,-0.39579 c 69.67037,-0.966 121.34893,12.1465 160.719,32.50168 q 10.01082,5.16279 18.97332,10.92332 a 236.05444,236.05444 0 0 1 26.08005,19.31927 254.89837,254.89837 0 0 1 31.42249,32.19714 l 0.52216,0.6393 c 46.04826,56.326 61.203,118.68168 93.23451,129.6607 136.92626,46.94026 223.52635,-123.21979 232.4074,-289.67387 q 0.67263,-12.58159 0.74315,-25.09128 0.0416,-5.59155 -0.055,-11.15359 c -0.14052,-9.67346 -0.567,-19.28471 -1.28114,-28.7797 q -0.40006,-5.44542 -0.92807,-10.83322 c -0.3879,-3.87342 -0.80989,-7.72368 -1.2976,-11.54982 -3.48327,-28.04639 -9.57696,-54.73033 -18.41858,-78.82958 z"
     fill="#ffcc00"
     id="path3" />
  <path
     d="m 317.37572,335.34364 c 10.93522,5.09113 11.11539,27.895 7.68649,35.28386 l -6.21383,13.37421 -39.60938,-18.403 6.21383,-13.37421 c 3.4356,-7.3858 20.97965,-21.95475 31.92289,-16.88086 z"
     fill="#3f3d56"
     id="path4" />
  <path
     d="m 423.81652,527.35955 a 4.33285,4.33285 0 0 0 4.06983,-5.81934 4.29966,4.29966 0 0 0 -2.24317,-2.44043 L 221.08947,424.06169 a 4.33007,4.33007 0 0 0 -5.752,2.10157 4.33573,4.33573 0 0 0 2.10254,5.752 h 4.9e-4 l 204.55376,95.03804 a 4.30619,4.30619 0 0 0 1.82226,0.40625 z"
     fill="#3f3d56"
     id="path5" />
  <rect
     x="-461.36243"
     y="228.13739"
     width="64.473808"
     height="217.68037"
     transform="matrix(-0.90689552,-0.42135557,-0.42135557,0.90689552,0,0)"
     fill="#e6e6e6"
     id="rect5" />
  <path
     d="m 483.30474,125.61752 c 10.93522,5.09113 11.11539,27.895 7.68649,35.28386 l -6.21383,13.37421 -39.60938,-18.403 6.21383,-13.3742 c 3.4356,-7.38581 20.97965,-21.95476 31.92289,-16.88087 z"
     fill="#3f3d56"
     id="path6" />
  <path
     d="m 238.28994,627.86417 17.99256,8.35958 a 13.81216,13.81216 0 0 0 8.73392,1.17747 c 2.6121,-0.61775 4.37717,-2.21476 4.84109,-4.3833 l 4.1866,-19.55421 c 0.79049,-3.68869 -2.26453,-8.05314 -7.26377,-10.37585 l -9.93651,-4.61664 c -4.99924,-2.32271 -10.305,-1.8428 -12.6143,1.14025 l -12.24427,15.81049 c -1.35811,1.75309 -1.4403,4.132 -0.22783,6.52668 a 13.81219,13.81219 0 0 0 6.53251,5.91553 z"
     fill="#3f3d56"
     id="path7" />
  <path
     d="m 293.60869,655.30991 17.99257,8.35958 a 13.81222,13.81222 0 0 0 8.73392,1.17747 c 2.6121,-0.61776 4.37716,-2.21476 4.84109,-4.3833 l 4.18659,-19.55422 c 0.7905,-3.68869 -2.26452,-8.05313 -7.26376,-10.37584 l -9.93652,-4.61664 c -4.99923,-2.32271 -10.305,-1.8428 -12.61429,1.14024 l -12.24431,15.8105 c -1.35811,1.75308 -1.4403,4.132 -0.22783,6.52668 a 13.81219,13.81219 0 0 0 6.53254,5.91553 z"
     fill="#3f3d56"
     id="path8" />
  <rect
     x="-523.47345"
     y="5.050364"
     width="64.473808"
     height="440.01581"
     transform="matrix(-0.90689552,-0.42135557,-0.42135557,0.90689552,0,0)"
     fill="#e6e6e6"
     id="rect8" />
  <polyline
     points="548.951 403.691 542.39 389.254 546.167 387.512 552.708 401.903 647.423 611.909 643.65 613.662"
     fill="#3f3d56"
     id="polyline8"
     transform="matrix(-1,0,0,1,902.41853,0)" />
  <polyline
     points="622.951 391.691 616.39 377.254 620.167 375.512 626.708 389.903 721.423 599.909 717.65 601.662"
     fill="#3f3d56"
     id="polyline9"
     transform="matrix(-1,0,0,1,902.41853,0)" />
  <path
     d="m 386.53832,229.91722 79.22567,36.80928 c 5.044,-7.84723 20.24939,-48.06017 16.83519,-59.99122 l 2.56272,-11.37766 -54.70348,-25.416 -7.32219,9.00725 c -10.86912,3.33496 -32.02851,41.10585 -36.59791,50.96835 z"
     fill="#e6e6e6"
     id="path9" />
  <path
     d="m 428.1725,170.42839 56.45093,26.22784 c 2.08362,0.968 4.30262,0.61217 4.95626,-0.79495 a 1.95213,1.95213 0 0 0 0.17209,-0.6429 l 2.92164,-31.16788 c 0.1251,-1.33466 -1.01667,-2.84708 -2.76109,-3.65756 l -37.43681,-17.39355 c -1.74442,-0.81048 -3.63664,-0.70769 -4.576,0.24866 l -21.93586,22.33363 c -1.12192,1.14229 -0.51268,3.09757 1.36081,4.36726 a 6.08075,6.08075 0 0 0 0.84803,0.47945 z"
     fill="#e6e6e6"
     id="path10" />
  <path
     d="m 383.89611,414.61739 a 7.62608,7.62608 0 0 0 1.814,-0.21387 5.60386,5.60386 0 0 0 3.89648,-3.02539 l 34.51267,-74.28274 c 1.42822,-3.0752 -0.48926,-7.00782 -4.27442,-8.76661 l -50.53613,-23.48 c -3.78564,-1.75976 -8.02734,-0.6875 -9.45654,2.38721 l -34.5127,74.2832 a 5.60256,5.60256 0 0 0 0.20069,4.92872 8.50632,8.50632 0 0 0 4.07422,3.83789 l 50.53564,23.479 a 8.9197,8.9197 0 0 0 3.74609,0.85259 z"
     fill="#3f3d56"
     id="path11" />
  <rect
     x="-585.79895"
     y="227.36717"
     width="64.473808"
     height="217.68037"
     transform="matrix(-0.90689552,-0.42135557,-0.42135557,0.90689552,0,0)"
     fill="#e6e6e6"
     id="rect11" />
  <path
     d="m 449.02039,173.68457 17.14693,7.9667 c 3.30882,1.53733 7.77287,-1.02438 9.94972,-5.70968 2.17685,-4.6853 1.25568,-9.74905 -2.05314,-11.28637 l -17.14693,-7.9667 c -3.30882,-1.53733 -7.77287,1.02438 -9.94972,5.70968 -2.17685,4.6853 -1.25569,9.74905 2.05314,11.28637 z"
     fill="#3f3d56"
     id="path12" />
  <path
     d="m 429.41005,386.54697 c 10.93522,5.09113 11.11539,27.895 7.68649,35.28386 l -6.21383,13.37421 -39.60938,-18.403 6.21383,-13.37425 c 3.4356,-7.38576 20.97965,-21.95471 31.92289,-16.88082 z"
     fill="#3f3d56"
     id="path13" />
  <path
     d="m 611.05756,341.02827 c 3.862,2.57319 7.8147,-3.55124 3.87848,-6.01018 -3.86178,-2.57305 -7.81451,3.55139 -3.87848,6.01018 z"
     fill="#e6e6e6"
     id="path14" />
  <path
     d="m 209.05756,253.02827 c 3.862,2.57319 7.8147,-3.55124 3.87848,-6.01018 -3.86178,-2.57305 -7.81451,3.55139 -3.87848,6.01018 z"
     fill="#e6e6e6"
     id="path15" />
  <path
     d="m 483.05756,323.02827 c 3.862,2.57319 7.8147,-3.55124 3.87848,-6.01018 -3.86178,-2.57305 -7.81451,3.55139 -3.87848,6.01018 z"
     fill="#e6e6e6"
     id="path16" />
  <path
     d="m 611.05756,563.02827 c 3.862,2.57319 7.8147,-3.55124 3.87848,-6.01018 -3.86178,-2.57305 -7.81451,3.55139 -3.87848,6.01018 z"
     fill="#e6e6e6"
     id="path17" />
  <path
     d="m 414.05756,62.02827 c 3.862,2.57319 7.8147,-3.55124 3.87848,-6.01018 -3.86178,-2.57305 -7.81451,3.55139 -3.87848,6.01018 z"
     fill="#e6e6e6"
     id="path18" />
  <path
     d="m 604.05756,180.02827 c 3.862,2.57319 7.8147,-3.55124 3.87848,-6.01018 -3.86178,-2.57305 -7.81451,3.55139 -3.87848,6.01018 z"
     fill="#e6e6e6"
     id="path19" />
  <polygon
     points="569.182,145.661 569.72,143.203 568.082,142.844 567.543,145.302 565.086,144.764 564.727,146.402 567.184,146.941 566.646,149.398 568.284,149.757 568.823,147.299 571.28,147.838 571.639,146.2 "
     fill="#e6e6e6"
     id="polygon19"
     transform="matrix(-1,0,0,1,902.41853,0)" />
  <polygon
     points="169.085,350.439 169.623,347.982 167.985,347.623 167.446,350.08 164.988,349.542 164.629,351.18 167.087,351.719 166.549,354.177 168.187,354.535 168.726,352.078 171.183,352.616 171.542,350.978 "
     fill="#e6e6e6"
     id="polygon20"
     transform="matrix(-1,0,0,1,902.41853,0)" />
  <path
     d="m 226.98926,455.43626 a 8.50983,8.50983 0 0 0 11.29014,-4.12709 l 10.11253,-21.7655 a 8.5,8.5 0 0 0 -15.41723,-7.163 l -10.11253,21.76549 a 8.50983,8.50983 0 0 0 4.12709,11.2901 z"
     fill="#3f3d56"
     id="path20" />
  <path
     d="m 398.98926,535.43626 a 8.50983,8.50983 0 0 0 11.29014,-4.12709 l 10.11253,-21.7655 a 8.5,8.5 0 0 0 -15.41723,-7.163 l -10.11253,21.76549 a 8.50983,8.50983 0 0 0 4.12709,11.2901 z"
     fill="#3f3d56"
     id="path21" />
  <path
     d="m 242.5675,407.88149 67.80585,31.50349 c 4.317,-6.71611 17.33058,-41.13265 14.40852,-51.34393 l -1.43426,-11.42307 -40.48614,-19.86306 -8.9714,7.505 c -12.63995,-4.27339 -31.22003,27.04802 -31.32257,43.62157 z"
     fill="#e6e6e6"
     id="path22" />
  <path
     d="m 274.04748,405.69715 17.14693,7.96671 c 3.30882,1.53733 8.34353,-2.25264 11.22164,-8.44728 2.87811,-6.19464 2.52761,-12.48665 -0.78121,-14.024 l -17.14693,-7.96671 c -3.30882,-1.53732 -8.34353,2.25264 -11.22164,8.44728 -2.87811,6.19464 -2.52761,12.48668 0.78121,14.024 z"
     fill="#3f3d56"
     id="path23" />
  <polyline
     points="482.951 446.691 476.39 432.254 480.167 430.512 486.708 444.903 581.423 654.909 577.65 656.662"
     fill="#3f3d56"
     id="polyline23"
     transform="matrix(-1,0,0,1,902.41853,0)" />
  <path
     d="m 354.60181,459.08482 67.8059,31.50349 c 10.00311,-5.16492 25.29108,-38.961 14.40851,-51.34394 l -1.43428,-11.42306 -40.48614,-19.86306 -8.9714,7.505 c -9.30241,2.85414 -27.41184,35.18067 -31.32259,43.62157 z"
     fill="#e6e6e6"
     id="path24" />
  <path
     d="m 387.47733,453.89687 17.14693,7.9667 c 3.30882,1.53733 8.03047,-1.57883 10.52388,-6.94547 2.49341,-5.36664 1.82985,-10.98484 -1.479,-12.52216 l -17.14693,-7.96671 c -3.30882,-1.53732 -8.03047,1.57884 -10.52388,6.94547 -2.49341,5.36663 -1.82982,10.98484 1.479,12.52217 z"
     fill="#3f3d56"
     id="path25" />
  <circle
     cx="-731.12708"
     cy="204.84489"
     r="103"
     fill="#ff6584"
     id="circle25"
     transform="scale(-1,1)"
     style="fill:#e93808;fill-opacity:1" />
  <path
     d="m 308.81304,312.12392 -62.59321,-182.809 68.73123,180.62069 a 3.44161,3.44161 0 1 1 -6.138,2.18831 z"
     fill="#f0f0f0"
     opacity="0.3"
     id="path26" />
  <path
     d="m 149.25914,203.15793 q 18.37971,6.10836 40.75145,12.00083 c 77.14515,20.311 180.54976,36.15428 291.16558,44.61271 110.61535,8.45828 215.22739,8.51948 294.5635,0.17426 38.6472,-4.06578 69.21495,-9.91317 90.85368,-17.381 22.90943,-7.9053 34.94724,-17.43191 35.77952,-28.31364 1.62074,-21.19968 -40.21258,-39.85854 -75.59194,-51.77816 l -0.95819,2.84289 c 48.58523,16.36871 74.70862,33.66657 73.55842,48.70667 -1.4643,19.15595 -46.64436,34.80631 -123.95529,42.93958 -79.16179,8.327 -183.58052,8.26316 -294.02138,-0.18138 C 370.9644,248.33538 267.74959,232.5233 190.77418,212.25737 115.60066,192.4668 73.323702,170.12816 74.788612,150.9719 c 1.21629,-15.90466 32.567218,-29.51036 88.277698,-38.3124 l -0.46834,-2.963 c -40.48,6.39573 -89.092558,18.70823 -90.801068,41.04675 -0.83181,10.88188 9.61776,22.12737 31.058918,33.424 12.22237,6.43924 27.75208,12.79214 46.40332,18.99068 z"
     fill="#3f3d56"
     id="path27" />
  <circle
     cx="-118.99324"
     cy="375.13623"
     r="10.70234"
     fill="#ff6584"
     id="circle27"
     transform="scale(-1,1)"
     style="fill:#e93808;fill-opacity:1" />
  <circle
     cx="-50.99324"
     cy="665.13623"
     r="10.70234"
     fill="#f2f2f2"
     id="circle28"
     transform="scale(-1,1)" />
  <circle
     cx="-415.99319"
     cy="720.13623"
     r="20.86614"
     fill="#f2f2f2"
     id="circle29"
     transform="scale(-1,1)" />
  <circle
     cx="-574.99323"
     cy="454.13623"
     r="10.70234"
     fill="#3f3d56"
     id="circle30"
     transform="scale(-1,1)" />
  <polygon
     points="733.402,490.721 761.723,546.349 713.843,548.227 687.226,478.768 "
     fill="#e6e6e6"
     id="polygon30"
     transform="matrix(-1,0,0,1,902.41853,0)" />
  <polygon
     points="606.059,424.002 670.606,563.557 658.722,573.824 580.645,398.574 "
     fill="#cccccc"
     id="polygon31"
     transform="matrix(-1,0,0,1,902.41853,0)" />
  <polygon
     points="527.38,457.52 588.304,598.694 603.88,596.688 525.386,421.624 "
     fill="#cccccc"
     id="polygon32"
     transform="matrix(-1,0,0,1,902.41853,0)" />
  <polygon
     points="498.854,607.339 517.187,667.008 552.9,635.061 523.723,566.637 "
     fill="#e6e6e6"
     id="polygon33"
     transform="matrix(-1,0,0,1,902.41853,0)" />
  <path
     d="m 159.01379,591.64707 q 19.36816,0 42.45654,-1.46387 c 79.61377,-5.05566 182.7378,-22.63281 290.376,-49.49219 107.63769,-26.85937 206.93017,-59.79394 279.58545,-92.73437 35.39258,-16.04688 62.55615,-31.23633 80.73535,-45.14746 19.24707,-14.727 27.666,-27.564 25.02393,-38.15283 -5.14795,-20.62891 -50.731,-25.14209 -88.064,-25.29541 l -0.0127,3 c 51.26806,0.21044 81.51367,8.38671 85.16552,23.022 4.65186,18.64013 -33.28662,47.74072 -104.08691,79.84131 -72.49561,32.86816 -171.60547,65.73925 -279.07324,92.55664 -107.46729,26.8164 -210.40137,44.36328 -289.83985,49.4082 -77.57861,4.92773 -124.743158,-2.9375 -129.394528,-21.57812 -3.86181,-15.47657 21.59815,-38.2754 71.689448,-64.19825 l -1.3789,-2.66406 c -36.397,18.83594 -78.645508,45.85156 -73.221678,67.58887 2.64259,10.58886 16.10548,17.96486 40.015148,21.92286 13.62939,2.25582 30.37011,3.38668 50.02441,3.38668 z"
     fill="#3f3d56"
     id="path33" />
</svg>
